{
    "asset" : {
        "generator" : "Khronos glTF Blender I/O v1.6.16",
        "version" : "2.0"
    },
    "scene" : 0,
    "scenes" : [
        {
            "name" : "Scene",
            "nodes" : [
                0,
                1
            ]
        }
    ],
    "nodes" : [
        {
            "mesh" : 0,
            "name" : "Circle"
        },
        {
            "mesh" : 1,
            "name" : "Icosphere",
            "translation" : [
                0.38755524158477783,
                6.317237854003906,
                0
            ]
        }
    ],
    "materials" : [
        {
            "doubleSided" : true,
            "name" : "stvol.004",
            "pbrMetallicRoughness" : {
                "baseColorFactor" : [
                    0.23839770257472992,
                    0.13013648986816406,
                    0.057805437594652176,
                    1
                ],
                "metallicFactor" : 0,
                "roughnessFactor" : 0.5
            }
        },
        {
            "doubleSided" : true,
            "name" : "three.006",
            "pbrMetallicRoughness" : {
                "baseColorFactor" : [
                    0.13563334941864014,
                    0.6172068119049072,
                    0.1356334090232849,
                    1
                ],
                "metallicFactor" : 0,
                "roughnessFactor" : 0.5
            }
        }
    ],
    "meshes" : [
        {
            "name" : "Circle.004",
            "primitives" : [
                {
                    "attributes" : {
                        "POSITION" : 0
                    },
                    "indices" : 1,
                    "material" : 0
                }
            ]
        },
        {
            "name" : "Icosphere.007",
            "primitives" : [
                {
                    "attributes" : {
                        "POSITION" : 2
                    },
                    "indices" : 3,
                    "material" : 1
                }
            ]
        }
    ],
    "accessors" : [
        {
            "bufferView" : 0,
            "componentType" : 5126,
            "count" : 32,
            "max" : [
                1.0825676918029785,
                6.8748650550842285,
                0.7391344904899597
            ],
            "min" : [
                -0.7391344904899597,
                0,
                -0.8904178142547607
            ],
            "type" : "VEC3"
        },
        {
            "bufferView" : 1,
            "componentType" : 5123,
            "count" : 144,
            "type" : "SCALAR"
        },
        {
            "bufferView" : 2,
            "componentType" : 5126,
            "count" : 162,
            "max" : [
                3.3169777393341064,
                3.047804355621338,
                2.0819520950317383
            ],
            "min" : [
                -2.0908401012420654,
                -2.3392910957336426,
                -3.092042922973633
            ],
            "type" : "VEC3"
        },
        {
            "bufferView" : 3,
            "componentType" : 5123,
            "count" : 960,
            "type" : "SCALAR"
        }
    ],
    "bufferViews" : [
        {
            "buffer" : 0,
            "byteLength" : 384,
            "byteOffset" : 0
        },
        {
            "buffer" : 0,
            "byteLength" : 288,
            "byteOffset" : 384
        },
        {
            "buffer" : 0,
            "byteLength" : 1944,
            "byteOffset" : 672
        },
        {
            "buffer" : 0,
            "byteLength" : 1920,
            "byteOffset" : 2616
        }
    ],
    "buffers" : [
        {
            "byteLength" : 4536,
            "uri" : "data:application/octet-stream;base64,"
        }
    ]
}
