{
    "asset" : {
        "generator" : "Khronos glTF Blender I/O v1.6.16",
        "version" : "2.0"
    },
    "scene" : 0,
    "scenes" : [
        {
            "name" : "Scene",
            "nodes" : [
                0
            ]
        }
    ],
    "nodes" : [
        {
            "mesh" : 0,
            "name" : "Icosphere",
            "translation" : [
                -0.02129228413105011,
                1.8098441362380981,
                0
            ]
        }
    ],
    "materials" : [
        {
            "doubleSided" : true,
            "name" : "three",
            "pbrMetallicRoughness" : {
                "baseColorFactor" : [
                    0.579062819480896,
                    0.8000000715255737,
                    0.018566593527793884,
                    1
                ],
                "metallicFactor" : 0,
                "roughnessFactor" : 0.5
            }
        }
    ],
    "meshes" : [
        {
            "name" : "Icosphere.004",
            "primitives" : [
                {
                    "attributes" : {
                        "POSITION" : 0
                    },
                    "indices" : 1,
                    "material" : 0
                }
            ]
        }
    ],
    "accessors" : [
        {
            "bufferView" : 0,
            "componentType" : 5126,
            "count" : 162,
            "max" : [
                1.9388511180877686,
                1.573867917060852,
                1.704582691192627
            ],
            "min" : [
                -1.9598557949066162,
                -2.0846359729766846,
                -1.870901107788086
            ],
            "type" : "VEC3"
        },
        {
            "bufferView" : 1,
            "componentType" : 5123,
            "count" : 960,
            "type" : "SCALAR"
        }
    ],
    "bufferViews" : [
        {
            "buffer" : 0,
            "byteLength" : 1944,
            "byteOffset" : 0
        },
        {
            "buffer" : 0,
            "byteLength" : 1920,
            "byteOffset" : 1944
        }
    ],
    "buffers" : [
        {
            "byteLength" : 3864,
            "uri" : "data:application/octet-stream;base64,"
        }
    ]
}
