{
    "asset" : {
        "generator" : "Khronos glTF Blender I/O v1.6.16",
        "version" : "2.0"
    },
    "scene" : 0,
    "scenes" : [
        {
            "name" : "Scene",
            "nodes" : [
                0,
                1,
                2
            ]
        }
    ],
    "nodes" : [
        {
            "mesh" : 0,
            "name" : "Circle"
        },
        {
            "mesh" : 1,
            "name" : "Icosphere",
            "translation" : [
                -2.4010188579559326,
                6.463388919830322,
                0.7744833827018738
            ]
        },
        {
            "mesh" : 2,
            "name" : "Icosphere.002",
            "translation" : [
                0.6828792095184326,
                7.439222812652588,
                0.015772610902786255
            ]
        }
    ],
    "materials" : [
        {
            "doubleSided" : true,
            "name" : "stvol.003",
            "pbrMetallicRoughness" : {
                "baseColorFactor" : [
                    0.23839770257472992,
                    0.13013648986816406,
                    0.057805437594652176,
                    1
                ],
                "metallicFactor" : 0,
                "roughnessFactor" : 0.5
            }
        },
        {
            "doubleSided" : true,
            "name" : "three2.001",
            "pbrMetallicRoughness" : {
                "baseColorFactor" : [
                    0.46720170974731445,
                    0.33504703640937805,
                    0,
                    1
                ],
                "metallicFactor" : 0,
                "roughnessFactor" : 0.5
            }
        },
        {
            "doubleSided" : true,
            "name" : "three.005",
            "pbrMetallicRoughness" : {
                "baseColorFactor" : [
                    0.9046615958213806,
                    0.6444797515869141,
                    0,
                    1
                ],
                "metallicFactor" : 0,
                "roughnessFactor" : 0.5
            }
        }
    ],
    "meshes" : [
        {
            "name" : "Circle.003",
            "primitives" : [
                {
                    "attributes" : {
                        "POSITION" : 0
                    },
                    "indices" : 1,
                    "material" : 0
                }
            ]
        },
        {
            "name" : "Icosphere.005",
            "primitives" : [
                {
                    "attributes" : {
                        "POSITION" : 2
                    },
                    "indices" : 3,
                    "material" : 1
                }
            ]
        },
        {
            "name" : "Icosphere.006",
            "primitives" : [
                {
                    "attributes" : {
                        "POSITION" : 4
                    },
                    "indices" : 3,
                    "material" : 2
                }
            ]
        }
    ],
    "accessors" : [
        {
            "bufferView" : 0,
            "componentType" : 5126,
            "count" : 60,
            "max" : [
                0.8465758562088013,
                6.3866071701049805,
                0.6224460005760193
            ],
            "min" : [
                -2.1788694858551025,
                0,
                -0.6224460005760193
            ],
            "type" : "VEC3"
        },
        {
            "bufferView" : 1,
            "componentType" : 5123,
            "count" : 300,
            "type" : "SCALAR"
        },
        {
            "bufferView" : 2,
            "componentType" : 5126,
            "count" : 162,
            "max" : [
                1.7136025428771973,
                1.3283846378326416,
                1.0315688848495483
            ],
            "min" : [
                -1.3805227279663086,
                -1.6533212661743164,
                -2.1348037719726562
            ],
            "type" : "VEC3"
        },
        {
            "bufferView" : 3,
            "componentType" : 5123,
            "count" : 960,
            "type" : "SCALAR"
        },
        {
            "bufferView" : 4,
            "componentType" : 5126,
            "count" : 162,
            "max" : [
                2.65710186958313,
                2.653808832168579,
                1.8302985429763794
            ],
            "min" : [
                -2.3651363849639893,
                -2.5737221240997314,
                -2.907622814178467
            ],
            "type" : "VEC3"
        }
    ],
    "bufferViews" : [
        {
            "buffer" : 0,
            "byteLength" : 720,
            "byteOffset" : 0
        },
        {
            "buffer" : 0,
            "byteLength" : 600,
            "byteOffset" : 720
        },
        {
            "buffer" : 0,
            "byteLength" : 1944,
            "byteOffset" : 1320
        },
        {
            "buffer" : 0,
            "byteLength" : 1920,
            "byteOffset" : 3264
        },
        {
            "buffer" : 0,
            "byteLength" : 1944,
            "byteOffset" : 5184
        }
    ],
    "buffers" : [
        {
            "byteLength" : 7128,
            "uri" : "data:application/octet-stream;base64,"
        }
    ]
}
