{
    "asset" : {
        "generator" : "Khronos glTF Blender I/O v1.6.16",
        "version" : "2.0"
    },
    "scene" : 0,
    "scenes" : [
        {
            "name" : "Scene",
            "nodes" : [
                0,
                1
            ]
        }
    ],
    "nodes" : [
        {
            "mesh" : 0,
            "name" : "Cylinder",
            "translation" : [
                0,
                2.028562545776367,
                0
            ]
        },
        {
            "mesh" : 1,
            "name" : "Circle"
        }
    ],
    "materials" : [
        {
            "doubleSided" : true,
            "name" : "three",
            "pbrMetallicRoughness" : {
                "baseColorFactor" : [
                    0.1912018358707428,
                    0.4019777476787567,
                    0.14702732861042023,
                    1
                ],
                "metallicFactor" : 0,
                "roughnessFactor" : 0.5
            }
        },
        {
            "doubleSided" : true,
            "name" : "stvol",
            "pbrMetallicRoughness" : {
                "baseColorFactor" : [
                    0.1094617024064064,
                    0.0618133507668972,
                    0.023938430473208427,
                    1
                ],
                "metallicFactor" : 0,
                "roughnessFactor" : 0.5
            }
        }
    ],
    "meshes" : [
        {
            "name" : "Cylinder",
            "primitives" : [
                {
                    "attributes" : {
                        "POSITION" : 0
                    },
                    "indices" : 1,
                    "material" : 0
                }
            ]
        },
        {
            "name" : "Circle.002",
            "primitives" : [
                {
                    "attributes" : {
                        "POSITION" : 2
                    },
                    "indices" : 3,
                    "material" : 1
                }
            ]
        }
    ],
    "accessors" : [
        {
            "bufferView" : 0,
            "componentType" : 5126,
            "count" : 96,
            "max" : [
                2.4673454761505127,
                7.570706844329834,
                2.4673454761505127
            ],
            "min" : [
                -2.4673454761505127,
                -0.7178822159767151,
                -2.4673454761505127
            ],
            "type" : "VEC3"
        },
        {
            "bufferView" : 1,
            "componentType" : 5123,
            "count" : 564,
            "type" : "SCALAR"
        },
        {
            "bufferView" : 2,
            "componentType" : 5126,
            "count" : 16,
            "max" : [
                0.58840411901474,
                1.8635976314544678,
                0.58840411901474
            ],
            "min" : [
                -0.58840411901474,
                0,
                -0.58840411901474
            ],
            "type" : "VEC3"
        },
        {
            "bufferView" : 3,
            "componentType" : 5123,
            "count" : 48,
            "type" : "SCALAR"
        }
    ],
    "bufferViews" : [
        {
            "buffer" : 0,
            "byteLength" : 1152,
            "byteOffset" : 0
        },
        {
            "buffer" : 0,
            "byteLength" : 1128,
            "byteOffset" : 1152
        },
        {
            "buffer" : 0,
            "byteLength" : 192,
            "byteOffset" : 2280
        },
        {
            "buffer" : 0,
            "byteLength" : 96,
            "byteOffset" : 2472
        }
    ],
    "buffers" : [
        {
            "byteLength" : 2568,
            "uri" : "data:application/octet-stream;base64,"
        }
    ]
}
