{
    "asset" : {
        "generator" : "Khronos glTF Blender I/O v1.6.16",
        "version" : "2.0"
    },
    "scene" : 0,
    "scenes" : [
        {
            "name" : "Scene",
            "nodes" : [
                0,
                1,
                2,
                3
            ]
        }
    ],
    "nodes" : [
        {
            "mesh" : 0,
            "name" : "Circle"
        },
        {
            "mesh" : 1,
            "name" : "Icosphere",
            "translation" : [
                -2.6690688133239746,
                15.594407081604004,
                1.7716628313064575
            ]
        },
        {
            "mesh" : 2,
            "name" : "Icosphere.001",
            "translation" : [
                -2.4025332927703857,
                11.846772193908691,
                -4.415762424468994
            ]
        },
        {
            "mesh" : 3,
            "name" : "Icosphere.002",
            "translation" : [
                4.09795618057251,
                11.700055122375488,
                0.8593240976333618
            ]
        }
    ],
    "materials" : [
        {
            "doubleSided" : true,
            "name" : "stvol.005",
            "pbrMetallicRoughness" : {
                "baseColorFactor" : [
                    0.13013656437397003,
                    0.03820435330271721,
                    0,
                    1
                ],
                "metallicFactor" : 0,
                "roughnessFactor" : 0.5
            }
        },
        {
            "doubleSided" : true,
            "name" : "tree2",
            "pbrMetallicRoughness" : {
                "baseColorFactor" : [
                    0.8069525957107544,
                    0.4507857859134674,
                    0.0722719058394432,
                    1
                ],
                "metallicFactor" : 0,
                "roughnessFactor" : 0.5
            }
        },
        {
            "doubleSided" : true,
            "name" : "tree1",
            "pbrMetallicRoughness" : {
                "baseColorFactor" : [
                    0.4620770215988159,
                    0.45078587532043457,
                    0.07227188348770142,
                    1
                ],
                "metallicFactor" : 0,
                "roughnessFactor" : 0.5
            }
        },
        {
            "doubleSided" : true,
            "name" : "tree3",
            "pbrMetallicRoughness" : {
                "baseColorFactor" : [
                    0.22322805225849152,
                    0.04373502358794212,
                    0.034339822828769684,
                    1
                ],
                "metallicFactor" : 0,
                "roughnessFactor" : 0.5
            }
        }
    ],
    "meshes" : [
        {
            "name" : "Circle.005",
            "primitives" : [
                {
                    "attributes" : {
                        "POSITION" : 0
                    },
                    "indices" : 1,
                    "material" : 0
                }
            ]
        },
        {
            "name" : "Icosphere.008",
            "primitives" : [
                {
                    "attributes" : {
                        "POSITION" : 2
                    },
                    "indices" : 3,
                    "material" : 1
                }
            ]
        },
        {
            "name" : "Icosphere.009",
            "primitives" : [
                {
                    "attributes" : {
                        "POSITION" : 4
                    },
                    "indices" : 3,
                    "material" : 2
                }
            ]
        },
        {
            "name" : "Icosphere.010",
            "primitives" : [
                {
                    "attributes" : {
                        "POSITION" : 5
                    },
                    "indices" : 3,
                    "material" : 3
                }
            ]
        }
    ],
    "accessors" : [
        {
            "bufferView" : 0,
            "componentType" : 5126,
            "count" : 68,
            "max" : [
                4.2568039894104,
                13.411109924316406,
                2.1288394927978516
            ],
            "min" : [
                -2.757589817047119,
                0,
                -4.439284801483154
            ],
            "type" : "VEC3"
        },
        {
            "bufferView" : 1,
            "componentType" : 5123,
            "count" : 378,
            "type" : "SCALAR"
        },
        {
            "bufferView" : 2,
            "componentType" : 5126,
            "count" : 162,
            "max" : [
                5.10053014755249,
                5.213583946228027,
                5.149132251739502
            ],
            "min" : [
                -5.046069145202637,
                -5.188699245452881,
                -4.708110809326172
            ],
            "type" : "VEC3"
        },
        {
            "bufferView" : 3,
            "componentType" : 5123,
            "count" : 960,
            "type" : "SCALAR"
        },
        {
            "bufferView" : 4,
            "componentType" : 5126,
            "count" : 162,
            "max" : [
                3.6560165882110596,
                4.111879825592041,
                3.95151948928833
            ],
            "min" : [
                -3.718702554702759,
                -4.001946926116943,
                -3.4852237701416016
            ],
            "type" : "VEC3"
        },
        {
            "bufferView" : 5,
            "componentType" : 5126,
            "count" : 162,
            "max" : [
                3.0987515449523926,
                3.2921056747436523,
                3.3348867893218994
            ],
            "min" : [
                -3.444509983062744,
                -3.341468572616577,
                -3.021528482437134
            ],
            "type" : "VEC3"
        }
    ],
    "bufferViews" : [
        {
            "buffer" : 0,
            "byteLength" : 816,
            "byteOffset" : 0
        },
        {
            "buffer" : 0,
            "byteLength" : 756,
            "byteOffset" : 816
        },
        {
            "buffer" : 0,
            "byteLength" : 1944,
            "byteOffset" : 1572
        },
        {
            "buffer" : 0,
            "byteLength" : 1920,
            "byteOffset" : 3516
        },
        {
            "buffer" : 0,
            "byteLength" : 1944,
            "byteOffset" : 5436
        },
        {
            "buffer" : 0,
            "byteLength" : 1944,
            "byteOffset" : 7380
        }
    ],
    "buffers" : [
        {
            "byteLength" : 9324,
            "uri" : "data:application/octet-stream;base64,"
        }
    ]
}
