{
    "asset" : {
        "generator" : "Khronos glTF Blender I/O v1.6.16",
        "version" : "2.0"
    },
    "scene" : 0,
    "scenes" : [
        {
            "name" : "Scene",
            "nodes" : [
                0
            ]
        }
    ],
    "nodes" : [
        {
            "mesh" : 0,
            "name" : "Cube.056",
            "translation" : [
                0,
                0.0014294199645519257,
                0.0016694823279976845
            ]
        }
    ],
    "materials" : [
        {
            "doubleSided" : true,
            "name" : "wood.001",
            "pbrMetallicRoughness" : {
                "baseColorFactor" : [
                    0.2961384057998657,
                    0.05612845718860626,
                    0.012286496348679066,
                    1
                ],
                "metallicFactor" : 0,
                "roughnessFactor" : 0.5
            }
        }
    ],
    "meshes" : [
        {
            "name" : "Cube.056",
            "primitives" : [
                {
                    "attributes" : {
                        "POSITION" : 0
                    },
                    "indices" : 1,
                    "material" : 0
                }
            ]
        }
    ],
    "accessors" : [
        {
            "bufferView" : 0,
            "componentType" : 5126,
            "count" : 112,
            "max" : [
                0.1357961893081665,
                2.5943078994750977,
                2.3265161514282227
            ],
            "min" : [
                -0.1357961893081665,
                -1.7727241516113281,
                -2.3265161514282227
            ],
            "type" : "VEC3"
        },
        {
            "bufferView" : 1,
            "componentType" : 5123,
            "count" : 738,
            "type" : "SCALAR"
        }
    ],
    "bufferViews" : [
        {
            "buffer" : 0,
            "byteLength" : 1344,
            "byteOffset" : 0
        },
        {
            "buffer" : 0,
            "byteLength" : 1476,
            "byteOffset" : 1344
        }
    ],
    "buffers" : [
        {
            "byteLength" : 2820,
            "uri" : "data:application/octet-stream;base64,"
        }
    ]
}
