{
    "asset" : {
        "generator" : "Khronos glTF Blender I/O v1.6.16",
        "version" : "2.0"
    },
    "scene" : 0,
    "scenes" : [
        {
            "name" : "Scene",
            "nodes" : [
                0
            ]
        }
    ],
    "nodes" : [
        {
            "mesh" : 0,
            "name" : "Cube",
            "rotation" : [
                0,
                2.1916353034612257e-06,
                -0.707095205783844,
                -0.7071184515953064
            ],
            "translation" : [
                0.6591899991035461,
                0.007744193077087402,
                0.01968058943748474
            ]
        }
    ],
    "materials" : [
        {
            "doubleSided" : true,
            "name" : "bodyColor",
            "pbrMetallicRoughness" : {
                "baseColorFactor" : [
                    0.1065337285399437,
                    0.1065337285399437,
                    0.1065337285399437,
                    1
                ],
                "metallicFactor" : 0,
                "roughnessFactor" : 0.5
            }
        },
        {
            "doubleSided" : true,
            "name" : "frontLight",
            "pbrMetallicRoughness" : {
                "baseColorFactor" : [
                    0.7742675542831421,
                    0.5085391998291016,
                    0.16654299199581146,
                    1
                ],
                "metallicFactor" : 0,
                "roughnessFactor" : 0.5
            }
        },
        {
            "doubleSided" : true,
            "name" : "backLight",
            "pbrMetallicRoughness" : {
                "baseColorFactor" : [
                    0.10247224569320679,
                    0.0012503891484811902,
                    0,
                    1
                ],
                "metallicFactor" : 0,
                "roughnessFactor" : 0.5
            }
        },
        {
            "doubleSided" : true,
            "name" : "glass",
            "pbrMetallicRoughness" : {
                "baseColorFactor" : [
                    0,
                    0,
                    0,
                    1
                ],
                "metallicFactor" : 0,
                "roughnessFactor" : 0.5
            }
        }
    ],
    "meshes" : [
        {
            "name" : "Cube",
            "primitives" : [
                {
                    "attributes" : {
                        "POSITION" : 0,
                        "TEXCOORD_0" : 1
                    },
                    "indices" : 2,
                    "material" : 0
                },
                {
                    "attributes" : {
                        "POSITION" : 3,
                        "TEXCOORD_0" : 4
                    },
                    "indices" : 5,
                    "material" : 1
                },
                {
                    "attributes" : {
                        "POSITION" : 6,
                        "TEXCOORD_0" : 7
                    },
                    "indices" : 8,
                    "material" : 2
                },
                {
                    "attributes" : {
                        "POSITION" : 9,
                        "TEXCOORD_0" : 10
                    },
                    "indices" : 11,
                    "material" : 3
                }
            ]
        }
    ],
    "accessors" : [
        {
            "bufferView" : 0,
            "componentType" : 5126,
            "count" : 442,
            "max" : [
                0.7250685095787048,
                2.059816837310791,
                0.6029764413833618
            ],
            "min" : [
                -0.7250685095787048,
                -1.078019618988037,
                -0.16268375515937805
            ],
            "type" : "VEC3"
        },
        {
            "bufferView" : 1,
            "componentType" : 5126,
            "count" : 442,
            "type" : "VEC2"
        },
        {
            "bufferView" : 2,
            "componentType" : 5123,
            "count" : 2406,
            "type" : "SCALAR"
        },
        {
            "bufferView" : 3,
            "componentType" : 5126,
            "count" : 10,
            "max" : [
                0.611775815486908,
                -1.0061774253845215,
                0.24054892361164093
            ],
            "min" : [
                -0.611775815486908,
                -1.0155025720596313,
                0.1471208930015564
            ],
            "type" : "VEC3"
        },
        {
            "bufferView" : 4,
            "componentType" : 5126,
            "count" : 10,
            "type" : "VEC2"
        },
        {
            "bufferView" : 5,
            "componentType" : 5123,
            "count" : 24,
            "type" : "SCALAR"
        },
        {
            "bufferView" : 6,
            "componentType" : 5126,
            "count" : 10,
            "max" : [
                0.6212975978851318,
                2.006462574005127,
                0.41952958703041077
            ],
            "min" : [
                -0.6212975978851318,
                1.9926226139068604,
                0.20639681816101074
            ],
            "type" : "VEC3"
        },
        {
            "bufferView" : 7,
            "componentType" : 5126,
            "count" : 10,
            "type" : "VEC2"
        },
        {
            "bufferView" : 8,
            "componentType" : 5123,
            "count" : 24,
            "type" : "SCALAR"
        },
        {
            "bufferView" : 9,
            "componentType" : 5126,
            "count" : 56,
            "max" : [
                0.6173979043960571,
                1.8346120119094849,
                0.5868360996246338
            ],
            "min" : [
                -0.6173979043960571,
                0.0060096243396401405,
                0.3019592761993408
            ],
            "type" : "VEC3"
        },
        {
            "bufferView" : 10,
            "componentType" : 5126,
            "count" : 56,
            "type" : "VEC2"
        },
        {
            "bufferView" : 11,
            "componentType" : 5123,
            "count" : 186,
            "type" : "SCALAR"
        }
    ],
    "bufferViews" : [
        {
            "buffer" : 0,
            "byteLength" : 5304,
            "byteOffset" : 0
        },
        {
            "buffer" : 0,
            "byteLength" : 3536,
            "byteOffset" : 5304
        },
        {
            "buffer" : 0,
            "byteLength" : 4812,
            "byteOffset" : 8840
        },
        {
            "buffer" : 0,
            "byteLength" : 120,
            "byteOffset" : 13652
        },
        {
            "buffer" : 0,
            "byteLength" : 80,
            "byteOffset" : 13772
        },
        {
            "buffer" : 0,
            "byteLength" : 48,
            "byteOffset" : 13852
        },
        {
            "buffer" : 0,
            "byteLength" : 120,
            "byteOffset" : 13900
        },
        {
            "buffer" : 0,
            "byteLength" : 80,
            "byteOffset" : 14020
        },
        {
            "buffer" : 0,
            "byteLength" : 48,
            "byteOffset" : 14100
        },
        {
            "buffer" : 0,
            "byteLength" : 672,
            "byteOffset" : 14148
        },
        {
            "buffer" : 0,
            "byteLength" : 448,
            "byteOffset" : 14820
        },
        {
            "buffer" : 0,
            "byteLength" : 372,
            "byteOffset" : 15268
        }
    ],
    "buffers" : [
        {
            "byteLength" : 15640,
            "uri" : "data:application/octet-stream;base64,"
        }
    ]
}
