{
    "asset" : {
        "generator" : "Khronos glTF Blender I/O v1.6.16",
        "version" : "2.0"
    },
    "scene" : 0,
    "scenes" : [
        {
            "name" : "Scene",
            "nodes" : [
                0
            ]
        }
    ],
    "nodes" : [
        {
            "mesh" : 0,
            "name" : "Cylinder",
            "rotation" : [
                0.5,
                0.4999999701976776,
                -0.5,
                0.5
            ]
        }
    ],
    "materials" : [
        {
            "doubleSided" : true,
            "name" : "rubber",
            "pbrMetallicRoughness" : {
                "baseColorFactor" : [
                    0,
                    0,
                    0,
                    1
                ],
                "metallicFactor" : 0,
                "roughnessFactor" : 0.5
            }
        },
        {
            "doubleSided" : true,
            "name" : "disk",
            "pbrMetallicRoughness" : {
                "baseColorFactor" : [
                    0.25979799032211304,
                    0.25979799032211304,
                    0.25979799032211304,
                    1
                ],
                "metallicFactor" : 0,
                "roughnessFactor" : 0.5
            }
        }
    ],
    "meshes" : [
        {
            "name" : "Cylinder",
            "primitives" : [
                {
                    "attributes" : {
                        "POSITION" : 0,
                        "TEXCOORD_0" : 1
                    },
                    "indices" : 2,
                    "material" : 0
                },
                {
                    "attributes" : {
                        "POSITION" : 3,
                        "TEXCOORD_0" : 4
                    },
                    "indices" : 5,
                    "material" : 1
                }
            ]
        }
    ],
    "accessors" : [
        {
            "bufferView" : 0,
            "componentType" : 5126,
            "count" : 315,
            "max" : [
                1.7000000476837158,
                1.7000000476837158,
                0.5787433981895447
            ],
            "min" : [
                -1.7000000476837158,
                -1.7000000476837158,
                -0.5787433981895447
            ],
            "type" : "VEC3"
        },
        {
            "bufferView" : 1,
            "componentType" : 5126,
            "count" : 315,
            "type" : "VEC2"
        },
        {
            "bufferView" : 2,
            "componentType" : 5123,
            "count" : 1152,
            "type" : "SCALAR"
        },
        {
            "bufferView" : 3,
            "componentType" : 5126,
            "count" : 96,
            "max" : [
                1.0673774480819702,
                1.0663191080093384,
                0.5429664254188538
            ],
            "min" : [
                -1.065260887145996,
                -1.0663191080093384,
                -0.5429664254188538
            ],
            "type" : "VEC3"
        },
        {
            "bufferView" : 4,
            "componentType" : 5126,
            "count" : 96,
            "type" : "VEC2"
        },
        {
            "bufferView" : 5,
            "componentType" : 5123,
            "count" : 420,
            "type" : "SCALAR"
        }
    ],
    "bufferViews" : [
        {
            "buffer" : 0,
            "byteLength" : 3780,
            "byteOffset" : 0
        },
        {
            "buffer" : 0,
            "byteLength" : 2520,
            "byteOffset" : 3780
        },
        {
            "buffer" : 0,
            "byteLength" : 2304,
            "byteOffset" : 6300
        },
        {
            "buffer" : 0,
            "byteLength" : 1152,
            "byteOffset" : 8604
        },
        {
            "buffer" : 0,
            "byteLength" : 768,
            "byteOffset" : 9756
        },
        {
            "buffer" : 0,
            "byteLength" : 840,
            "byteOffset" : 10524
        }
    ],
    "buffers" : [
        {
            "byteLength" : 11364,
            "uri" : "data:application/octet-stream;base64,"
        }
    ]
}
