{
    "asset" : {
        "generator" : "Khronos glTF Blender I/O v1.6.16",
        "version" : "2.0"
    },
    "scene" : 0,
    "scenes" : [
        {
            "name" : "Scene",
            "nodes" : [
                0,
                1,
                2,
                3,
                4
            ]
        }
    ],
    "nodes" : [
        {
            "mesh" : 0,
            "name" : "Cube",
            "translation" : [
                0,
                -1.0495657920837402,
                0
            ]
        },
        {
            "mesh" : 1,
            "name" : "Cube.001",
            "rotation" : [
                -0.7905440926551819,
                0,
                0,
                0.6124051213264465
            ],
            "translation" : [
                -0.15728974342346191,
                1.3941774368286133,
                0.07229531556367874
            ]
        },
        {
            "mesh" : 2,
            "name" : "Cube.002",
            "rotation" : [
                -0.46627816557884216,
                -0.01804010011255741,
                0.034193556755781174,
                0.8837929964065552
            ],
            "translation" : [
                -0.14311593770980835,
                0.6287916898727417,
                0.17859888076782227
            ]
        },
        {
            "mesh" : 3,
            "name" : "Cube.003",
            "rotation" : [
                -0.9978866577148438,
                0.0005415516206994653,
                -0.06488242745399475,
                0.003498332342132926
            ],
            "translation" : [
                -0.15329384803771973,
                1.0828168392181396,
                -0.8370797038078308
            ]
        },
        {
            "mesh" : 4,
            "name" : "Cylinder",
            "translation" : [
                -0.14564251899719238,
                0.37792205810546875,
                -0.8460696935653687
            ]
        }
    ],
    "materials" : [
        {
            "doubleSided" : true,
            "name" : "wood",
            "pbrMetallicRoughness" : {
                "baseColorFactor" : [
                    0.17335473001003265,
                    0.054619889706373215,
                    0.008639727719128132,
                    1
                ],
                "metallicFactor" : 0,
                "roughnessFactor" : 0.5
            }
        },
        {
            "doubleSided" : true,
            "name" : "stroke",
            "pbrMetallicRoughness" : {
                "baseColorFactor" : [
                    0,
                    0,
                    0,
                    1
                ],
                "metallicFactor" : 0,
                "roughnessFactor" : 0.4000000059604645
            }
        },
        {
            "doubleSided" : true,
            "name" : "lampBody",
            "pbrMetallicRoughness" : {
                "baseColorFactor" : [
                    0.054968539625406265,
                    0.054968539625406265,
                    0.054968539625406265,
                    1
                ],
                "metallicFactor" : 0,
                "roughnessFactor" : 0.5
            }
        },
        {
            "doubleSided" : true,
            "name" : "lamp",
            "pbrMetallicRoughness" : {
                "baseColorFactor" : [
                    0.8000000715255737,
                    0.7940590381622314,
                    0.31566911935806274,
                    1
                ],
                "metallicFactor" : 0,
                "roughnessFactor" : 0.5
            }
        }
    ],
    "meshes" : [
        {
            "name" : "Cube",
            "primitives" : [
                {
                    "attributes" : {
                        "POSITION" : 0
                    },
                    "indices" : 1,
                    "material" : 0
                }
            ]
        },
        {
            "name" : "Cube.001",
            "primitives" : [
                {
                    "attributes" : {
                        "POSITION" : 2
                    },
                    "indices" : 1,
                    "material" : 0
                }
            ]
        },
        {
            "name" : "Cube.002",
            "primitives" : [
                {
                    "attributes" : {
                        "POSITION" : 3
                    },
                    "indices" : 1,
                    "material" : 0
                }
            ]
        },
        {
            "name" : "Cube.003",
            "primitives" : [
                {
                    "attributes" : {
                        "POSITION" : 4
                    },
                    "indices" : 1,
                    "material" : 1
                }
            ]
        },
        {
            "name" : "Cylinder",
            "primitives" : [
                {
                    "attributes" : {
                        "POSITION" : 5
                    },
                    "indices" : 6,
                    "material" : 2
                },
                {
                    "attributes" : {
                        "POSITION" : 7
                    },
                    "indices" : 8,
                    "material" : 3
                }
            ]
        }
    ],
    "accessors" : [
        {
            "bufferView" : 0,
            "componentType" : 5126,
            "count" : 8,
            "max" : [
                0.1427704244852066,
                2.6051855087280273,
                0.1427704244852066
            ],
            "min" : [
                -0.1427704244852066,
                -0.5428016781806946,
                -0.14652983844280243
            ],
            "type" : "VEC3"
        },
        {
            "bufferView" : 1,
            "componentType" : 5123,
            "count" : 36,
            "type" : "SCALAR"
        },
        {
            "bufferView" : 2,
            "componentType" : 5126,
            "count" : 8,
            "max" : [
                0.044771067798137665,
                1.0176481008529663,
                0.12178853154182434
            ],
            "min" : [
                -0.044771067798137665,
                -0.05576955899596214,
                -0.12499545514583588
            ],
            "type" : "VEC3"
        },
        {
            "bufferView" : 3,
            "componentType" : 5126,
            "count" : 8,
            "max" : [
                0.044771067798137665,
                1.0176481008529663,
                0.12178853154182434
            ],
            "min" : [
                -0.044771067798137665,
                -0.05576955899596214,
                -0.12499545514583588
            ],
            "type" : "VEC3"
        },
        {
            "bufferView" : 4,
            "componentType" : 5126,
            "count" : 8,
            "max" : [
                0.011704720556735992,
                0.26082098484039307,
                0.020533636212348938
            ],
            "min" : [
                -0.011704720556735992,
                -0.014293615706264973,
                -0.02107432670891285
            ],
            "type" : "VEC3"
        },
        {
            "bufferView" : 5,
            "componentType" : 5126,
            "count" : 112,
            "max" : [
                0.21931393444538116,
                0.5029453039169312,
                0.18935637176036835
            ],
            "min" : [
                -0.22352351248264313,
                -0.021246125921607018,
                -0.18935637176036835
            ],
            "type" : "VEC3"
        },
        {
            "bufferView" : 6,
            "componentType" : 5123,
            "count" : 636,
            "type" : "SCALAR"
        },
        {
            "bufferView" : 7,
            "componentType" : 5126,
            "count" : 36,
            "max" : [
                0.17640091478824615,
                0.34974026679992676,
                0.1764010339975357
            ],
            "min" : [
                -0.1764010637998581,
                0.0849045068025589,
                -0.17640092968940735
            ],
            "type" : "VEC3"
        },
        {
            "bufferView" : 8,
            "componentType" : 5123,
            "count" : 144,
            "type" : "SCALAR"
        }
    ],
    "bufferViews" : [
        {
            "buffer" : 0,
            "byteLength" : 96,
            "byteOffset" : 0
        },
        {
            "buffer" : 0,
            "byteLength" : 72,
            "byteOffset" : 96
        },
        {
            "buffer" : 0,
            "byteLength" : 96,
            "byteOffset" : 168
        },
        {
            "buffer" : 0,
            "byteLength" : 96,
            "byteOffset" : 264
        },
        {
            "buffer" : 0,
            "byteLength" : 96,
            "byteOffset" : 360
        },
        {
            "buffer" : 0,
            "byteLength" : 1344,
            "byteOffset" : 456
        },
        {
            "buffer" : 0,
            "byteLength" : 1272,
            "byteOffset" : 1800
        },
        {
            "buffer" : 0,
            "byteLength" : 432,
            "byteOffset" : 3072
        },
        {
            "buffer" : 0,
            "byteLength" : 288,
            "byteOffset" : 3504
        }
    ],
    "buffers" : [
        {
            "byteLength" : 3792,
            "uri" : "data:application/octet-stream;base64,"
        }
    ]
}
