{
    "asset" : {
        "generator" : "Khronos glTF Blender I/O v1.6.16",
        "version" : "2.0"
    },
    "scene" : 0,
    "scenes" : [
        {
            "name" : "Scene",
            "nodes" : [
                0
            ]
        }
    ],
    "nodes" : [
        {
            "mesh" : 0,
            "name" : "Cylinder",
            "scale" : [
                1,
                1.1692898273468018,
                1
            ]
        }
    ],
    "materials" : [
        {
            "doubleSided" : true,
            "name" : "barrel",
            "pbrMetallicRoughness" : {
                "baseColorFactor" : [
                    0.37123793363571167,
                    0.14412850141525269,
                    0.05612851679325104,
                    1
                ],
                "metallicFactor" : 0,
                "roughnessFactor" : 0.5
            }
        },
        {
            "doubleSided" : true,
            "name" : "metal",
            "pbrMetallicRoughness" : {
                "baseColorFactor" : [
                    0.042311426252126694,
                    0.034339822828769684,
                    0.02732088416814804,
                    1
                ],
                "metallicFactor" : 0,
                "roughnessFactor" : 0.5
            }
        }
    ],
    "meshes" : [
        {
            "name" : "Cylinder",
            "primitives" : [
                {
                    "attributes" : {
                        "POSITION" : 0
                    },
                    "indices" : 1,
                    "material" : 0
                },
                {
                    "attributes" : {
                        "POSITION" : 2
                    },
                    "indices" : 3,
                    "material" : 1
                }
            ]
        }
    ],
    "accessors" : [
        {
            "bufferView" : 0,
            "componentType" : 5126,
            "count" : 132,
            "max" : [
                1.0185322761535645,
                0.978278636932373,
                1.0185322761535645
            ],
            "min" : [
                -1.0185322761535645,
                -1,
                -1.0185322761535645
            ],
            "type" : "VEC3"
        },
        {
            "bufferView" : 1,
            "componentType" : 5123,
            "count" : 636,
            "type" : "SCALAR"
        },
        {
            "bufferView" : 2,
            "componentType" : 5126,
            "count" : 120,
            "max" : [
                1.0269038677215576,
                0.5837109088897705,
                1.0269038677215576
            ],
            "min" : [
                -1.0269038677215576,
                -0.5783500075340271,
                -1.0269038677215576
            ],
            "type" : "VEC3"
        },
        {
            "bufferView" : 3,
            "componentType" : 5123,
            "count" : 576,
            "type" : "SCALAR"
        }
    ],
    "bufferViews" : [
        {
            "buffer" : 0,
            "byteLength" : 1584,
            "byteOffset" : 0
        },
        {
            "buffer" : 0,
            "byteLength" : 1272,
            "byteOffset" : 1584
        },
        {
            "buffer" : 0,
            "byteLength" : 1440,
            "byteOffset" : 2856
        },
        {
            "buffer" : 0,
            "byteLength" : 1152,
            "byteOffset" : 4296
        }
    ],
    "buffers" : [
        {
            "byteLength" : 5448,
            "uri" : "data:application/octet-stream;base64,"
        }
    ]
}
