{
    "asset" : {
        "generator" : "Khronos glTF Blender I/O v1.6.16",
        "version" : "2.0"
    },
    "scene" : 0,
    "scenes" : [
        {
            "name" : "Scene",
            "nodes" : [
                0
            ]
        }
    ],
    "nodes" : [
        {
            "mesh" : 0,
            "name" : "Sphere.001",
            "rotation" : [
                -0.25042980909347534,
                0.01217757910490036,
                -0.047017909586429596,
                0.9669156670570374
            ],
            "scale" : [
                2.6540777683258057,
                5.286526203155518,
                2.6540777683258057
            ],
            "translation" : [
                -0.024212926626205444,
                -0.2926118075847626,
                0.006925143767148256
            ]
        }
    ],
    "materials" : [
        {
            "doubleSided" : true,
            "name" : "bigStone",
            "pbrMetallicRoughness" : {
                "baseColorFactor" : [
                    0.3467041850090027,
                    0.34670406579971313,
                    0.3467040956020355,
                    1
                ],
                "metallicFactor" : 0,
                "roughnessFactor" : 0.5
            }
        }
    ],
    "meshes" : [
        {
            "name" : "Sphere.001",
            "primitives" : [
                {
                    "attributes" : {
                        "POSITION" : 0
                    },
                    "indices" : 1,
                    "material" : 0
                }
            ]
        }
    ],
    "accessors" : [
        {
            "bufferView" : 0,
            "componentType" : 5126,
            "count" : 82,
            "max" : [
                0.9705071449279785,
                0.6423577070236206,
                0.9998465776443481
            ],
            "min" : [
                -0.9595794677734375,
                -0.5775827169418335,
                -0.9977920651435852
            ],
            "type" : "VEC3"
        },
        {
            "bufferView" : 1,
            "componentType" : 5123,
            "count" : 480,
            "type" : "SCALAR"
        }
    ],
    "bufferViews" : [
        {
            "buffer" : 0,
            "byteLength" : 984,
            "byteOffset" : 0
        },
        {
            "buffer" : 0,
            "byteLength" : 960,
            "byteOffset" : 984
        }
    ],
    "buffers" : [
        {
            "byteLength" : 1944,
            "uri" : "data:application/octet-stream;base64,"
        }
    ]
}
