{
    "asset" : {
        "generator" : "Khronos glTF Blender I/O v1.6.16",
        "version" : "2.0"
    },
    "scene" : 0,
    "scenes" : [
        {
            "name" : "Scene",
            "nodes" : [
                0
            ]
        }
    ],
    "nodes" : [
        {
            "mesh" : 0,
            "name" : "Sphere",
            "scale" : [
                1,
                1.9918506145477295,
                1
            ],
            "translation" : [
                0,
                -0.18198776245117188,
                -0.0042324066162109375
            ]
        }
    ],
    "materials" : [
        {
            "doubleSided" : true,
            "name" : "littleStone",
            "pbrMetallicRoughness" : {
                "baseColorFactor" : [
                    0.5209957361221313,
                    0.5209954977035522,
                    0.5209956169128418,
                    1
                ],
                "metallicFactor" : 0,
                "roughnessFactor" : 0.5
            }
        }
    ],
    "meshes" : [
        {
            "name" : "Sphere",
            "primitives" : [
                {
                    "attributes" : {
                        "POSITION" : 0
                    },
                    "indices" : 1,
                    "material" : 0
                }
            ]
        }
    ],
    "accessors" : [
        {
            "bufferView" : 0,
            "componentType" : 5126,
            "count" : 88,
            "max" : [
                0.9705071449279785,
                0.7509559392929077,
                0.9998465776443481
            ],
            "min" : [
                -0.9595794677734375,
                -0.5775827169418335,
                -0.9977920651435852
            ],
            "type" : "VEC3"
        },
        {
            "bufferView" : 1,
            "componentType" : 5123,
            "count" : 516,
            "type" : "SCALAR"
        }
    ],
    "bufferViews" : [
        {
            "buffer" : 0,
            "byteLength" : 1056,
            "byteOffset" : 0
        },
        {
            "buffer" : 0,
            "byteLength" : 1032,
            "byteOffset" : 1056
        }
    ],
    "buffers" : [
        {
            "byteLength" : 2088,
            "uri" : "data:application/octet-stream;base64,"
        }
    ]
}
