{
    "asset" : {
        "generator" : "Khronos glTF Blender I/O v1.6.16",
        "version" : "2.0"
    },
    "scene" : 0,
    "scenes" : [
        {
            "name" : "Scene",
            "nodes" : [
                0
            ]
        }
    ],
    "nodes" : [
        {
            "mesh" : 0,
            "name" : "Sphere.002",
            "rotation" : [
                -0.043558456003665924,
                0.0028185315895825624,
                -0.06451010704040527,
                0.9969620704650879
            ],
            "scale" : [
                2.1115872859954834,
                4.205965995788574,
                2.1115872859954834
            ],
            "translation" : [
                -0.020037174224853516,
                -0.7116660475730896,
                0.5613308548927307
            ]
        }
    ],
    "materials" : [
        {
            "doubleSided" : true,
            "name" : "middleStone",
            "pbrMetallicRoughness" : {
                "baseColorFactor" : [
                    0.1844685971736908,
                    0.1844685971736908,
                    0.1844685971736908,
                    1
                ],
                "metallicFactor" : 0,
                "roughnessFactor" : 0.5
            }
        }
    ],
    "meshes" : [
        {
            "name" : "Sphere.002",
            "primitives" : [
                {
                    "attributes" : {
                        "POSITION" : 0
                    },
                    "indices" : 1,
                    "material" : 0
                }
            ]
        }
    ],
    "accessors" : [
        {
            "bufferView" : 0,
            "componentType" : 5126,
            "count" : 59,
            "max" : [
                0.9705071449279785,
                0.6423577070236206,
                0.7751836776733398
            ],
            "min" : [
                -0.8870865702629089,
                -0.3203134834766388,
                -0.9977920651435852
            ],
            "type" : "VEC3"
        },
        {
            "bufferView" : 1,
            "componentType" : 5123,
            "count" : 342,
            "type" : "SCALAR"
        }
    ],
    "bufferViews" : [
        {
            "buffer" : 0,
            "byteLength" : 708,
            "byteOffset" : 0
        },
        {
            "buffer" : 0,
            "byteLength" : 684,
            "byteOffset" : 708
        }
    ],
    "buffers" : [
        {
            "byteLength" : 1392,
            "uri" : "data:application/octet-stream;base64,"
        }
    ]
}
