{
    "asset" : {
        "generator" : "Khronos glTF Blender I/O v1.6.16",
        "version" : "2.0"
    },
    "scene" : 0,
    "scenes" : [
        {
            "name" : "Scene",
            "nodes" : [
                0
            ]
        }
    ],
    "nodes" : [
        {
            "mesh" : 0,
            "name" : "Cylinder.001",
            "translation" : [
                0.0276947021484375,
                -4.713101387023926,
                0.037717387080192566
            ]
        }
    ],
    "materials" : [
        {
            "doubleSided" : true,
            "name" : "tripleCactus",
            "pbrMetallicRoughness" : {
                "baseColorFactor" : [
                    0.2622506320476532,
                    0.5457248687744141,
                    0.022173911333084106,
                    1
                ],
                "metallicFactor" : 0,
                "roughnessFactor" : 0.5
            }
        }
    ],
    "meshes" : [
        {
            "name" : "Cylinder.002",
            "primitives" : [
                {
                    "attributes" : {
                        "POSITION" : 0
                    },
                    "indices" : 1,
                    "material" : 0
                }
            ]
        }
    ],
    "accessors" : [
        {
            "bufferView" : 0,
            "componentType" : 5126,
            "count" : 96,
            "max" : [
                4.092825412750244,
                10.547130584716797,
                1.8374701738357544
            ],
            "min" : [
                -3.9935343265533447,
                -1,
                -1.0413262844085693
            ],
            "type" : "VEC3"
        },
        {
            "bufferView" : 1,
            "componentType" : 5123,
            "count" : 564,
            "type" : "SCALAR"
        }
    ],
    "bufferViews" : [
        {
            "buffer" : 0,
            "byteLength" : 1152,
            "byteOffset" : 0
        },
        {
            "buffer" : 0,
            "byteLength" : 1128,
            "byteOffset" : 1152
        }
    ],
    "buffers" : [
        {
            "byteLength" : 2280,
            "uri" : "data:application/octet-stream;base64,"
        }
    ]
}
