{
    "asset" : {
        "generator" : "Khronos glTF Blender I/O v1.6.16",
        "version" : "2.0"
    },
    "scene" : 0,
    "scenes" : [
        {
            "name" : "Scene",
            "nodes" : [
                0,
                1,
                2
            ]
        }
    ],
    "nodes" : [
        {
            "mesh" : 0,
            "name" : "Cylinder",
            "rotation" : [
                0.7071067690849304,
                0,
                0,
                0.7071068286895752
            ],
            "translation" : [
                0,
                0.795994222164154,
                0
            ]
        },
        {
            "mesh" : 1,
            "name" : "Cylinder.001",
            "rotation" : [
                -0.5101674795150757,
                -0.492773175239563,
                -0.4896215796470642,
                0.5071237087249756
            ],
            "translation" : [
                0.04290374740958214,
                -0.8003213405609131,
                4.384945869445801
            ]
        },
        {
            "mesh" : 2,
            "name" : "Cylinder.002",
            "rotation" : [
                0.5163027048110962,
                -0.47993895411491394,
                -0.48314768075942993,
                -0.5192864537239075
            ],
            "translation" : [
                0.04290374740958214,
                -0.8003213405609131,
                -4.679059028625488
            ]
        }
    ],
    "materials" : [
        {
            "doubleSided" : true,
            "name" : "logOuter",
            "pbrMetallicRoughness" : {
                "baseColorFactor" : [
                    0.15592655539512634,
                    0.05612848699092865,
                    0.009134065359830856,
                    1
                ],
                "metallicFactor" : 0,
                "roughnessFactor" : 0.5
            }
        },
        {
            "doubleSided" : true,
            "name" : "logInner",
            "pbrMetallicRoughness" : {
                "baseColorFactor" : [
                    0.4851500988006592,
                    0.24620141088962555,
                    0.05286069214344025,
                    1
                ],
                "metallicFactor" : 0,
                "roughnessFactor" : 0.5
            }
        },
        {
            "doubleSided" : true,
            "name" : "logOuter.001",
            "pbrMetallicRoughness" : {
                "baseColorFactor" : [
                    0.15592655539512634,
                    0.05612848699092865,
                    0.009134065359830856,
                    1
                ],
                "metallicFactor" : 0,
                "roughnessFactor" : 0.5
            }
        },
        {
            "doubleSided" : true,
            "name" : "logInner.001",
            "pbrMetallicRoughness" : {
                "baseColorFactor" : [
                    0.4851500988006592,
                    0.24620141088962555,
                    0.05286069214344025,
                    1
                ],
                "metallicFactor" : 0,
                "roughnessFactor" : 0.5
            }
        },
        {
            "doubleSided" : true,
            "name" : "logOuter.002",
            "pbrMetallicRoughness" : {
                "baseColorFactor" : [
                    0.15592655539512634,
                    0.05612848699092865,
                    0.009134065359830856,
                    1
                ],
                "metallicFactor" : 0,
                "roughnessFactor" : 0.5
            }
        },
        {
            "doubleSided" : true,
            "name" : "logInner.002",
            "pbrMetallicRoughness" : {
                "baseColorFactor" : [
                    0.4851500988006592,
                    0.24620141088962555,
                    0.05286069214344025,
                    1
                ],
                "metallicFactor" : 0,
                "roughnessFactor" : 0.5
            }
        }
    ],
    "meshes" : [
        {
            "name" : "Cylinder",
            "primitives" : [
                {
                    "attributes" : {
                        "POSITION" : 0
                    },
                    "indices" : 1,
                    "material" : 0
                },
                {
                    "attributes" : {
                        "POSITION" : 2
                    },
                    "indices" : 3,
                    "material" : 1
                }
            ]
        },
        {
            "name" : "Cylinder.001",
            "primitives" : [
                {
                    "attributes" : {
                        "POSITION" : 4
                    },
                    "indices" : 5,
                    "material" : 2
                },
                {
                    "attributes" : {
                        "POSITION" : 6
                    },
                    "indices" : 7,
                    "material" : 3
                }
            ]
        },
        {
            "name" : "Cylinder.002",
            "primitives" : [
                {
                    "attributes" : {
                        "POSITION" : 8
                    },
                    "indices" : 5,
                    "material" : 4
                },
                {
                    "attributes" : {
                        "POSITION" : 9
                    },
                    "indices" : 7,
                    "material" : 5
                }
            ]
        }
    ],
    "accessors" : [
        {
            "bufferView" : 0,
            "componentType" : 5126,
            "count" : 39,
            "max" : [
                1.0618938207626343,
                5.9843621253967285,
                1.0001131296157837
            ],
            "min" : [
                -1.0091722011566162,
                -5.988160610198975,
                -0.02146797627210617
            ],
            "type" : "VEC3"
        },
        {
            "bufferView" : 1,
            "componentType" : 5123,
            "count" : 153,
            "type" : "SCALAR"
        },
        {
            "bufferView" : 2,
            "componentType" : 5126,
            "count" : 40,
            "max" : [
                0.9645028114318848,
                5.981269359588623,
                0.952682375907898
            ],
            "min" : [
                -0.9635531902313232,
                -5.98698091506958,
                -0.02146797627210617
            ],
            "type" : "VEC3"
        },
        {
            "bufferView" : 3,
            "componentType" : 5123,
            "count" : 159,
            "type" : "SCALAR"
        },
        {
            "bufferView" : 4,
            "componentType" : 5126,
            "count" : 33,
            "max" : [
                1.0618938207626343,
                1.4143908023834229,
                1.0001131296157837
            ],
            "min" : [
                -1.0091722011566162,
                -1.4152884483337402,
                -0.02146797627210617
            ],
            "type" : "VEC3"
        },
        {
            "bufferView" : 5,
            "componentType" : 5123,
            "count" : 135,
            "type" : "SCALAR"
        },
        {
            "bufferView" : 6,
            "componentType" : 5126,
            "count" : 29,
            "max" : [
                0.9645028114318848,
                1.413659691810608,
                0.952682375907898
            ],
            "min" : [
                -0.9635531902313232,
                -1.415009617805481,
                -0.02146797627210617
            ],
            "type" : "VEC3"
        },
        {
            "bufferView" : 7,
            "componentType" : 5123,
            "count" : 111,
            "type" : "SCALAR"
        },
        {
            "bufferView" : 8,
            "componentType" : 5126,
            "count" : 33,
            "max" : [
                1.0618938207626343,
                1.4143908023834229,
                1.0001131296157837
            ],
            "min" : [
                -1.0091722011566162,
                -1.4152884483337402,
                -0.02146797627210617
            ],
            "type" : "VEC3"
        },
        {
            "bufferView" : 9,
            "componentType" : 5126,
            "count" : 29,
            "max" : [
                0.9645028114318848,
                1.413659691810608,
                0.952682375907898
            ],
            "min" : [
                -0.9635531902313232,
                -1.415009617805481,
                -0.02146797627210617
            ],
            "type" : "VEC3"
        }
    ],
    "bufferViews" : [
        {
            "buffer" : 0,
            "byteLength" : 468,
            "byteOffset" : 0
        },
        {
            "buffer" : 0,
            "byteLength" : 306,
            "byteOffset" : 468
        },
        {
            "buffer" : 0,
            "byteLength" : 480,
            "byteOffset" : 776
        },
        {
            "buffer" : 0,
            "byteLength" : 318,
            "byteOffset" : 1256
        },
        {
            "buffer" : 0,
            "byteLength" : 396,
            "byteOffset" : 1576
        },
        {
            "buffer" : 0,
            "byteLength" : 270,
            "byteOffset" : 1972
        },
        {
            "buffer" : 0,
            "byteLength" : 348,
            "byteOffset" : 2244
        },
        {
            "buffer" : 0,
            "byteLength" : 222,
            "byteOffset" : 2592
        },
        {
            "buffer" : 0,
            "byteLength" : 396,
            "byteOffset" : 2816
        },
        {
            "buffer" : 0,
            "byteLength" : 348,
            "byteOffset" : 3212
        }
    ],
    "buffers" : [
        {
            "byteLength" : 3560,
            "uri" : "data:application/octet-stream;base64,"
        }
    ]
}
