{
    "asset" : {
        "generator" : "Khronos glTF Blender I/O v1.6.16",
        "version" : "2.0"
    },
    "scene" : 0,
    "scenes" : [
        {
            "name" : "Scene",
            "nodes" : [
                0
            ]
        }
    ],
    "nodes" : [
        {
            "mesh" : 0,
            "name" : "Sphere",
            "translation" : [
                0,
                -0.004922007210552692,
                0.0030203238129615784
            ]
        }
    ],
    "materials" : [
        {
            "doubleSided" : true,
            "name" : "ball",
            "pbrMetallicRoughness" : {
                "baseColorFactor" : [
                    0.4125428795814514,
                    0.13286830484867096,
                    0.33716362714767456,
                    1
                ],
                "metallicFactor" : 0,
                "roughnessFactor" : 0.5
            }
        }
    ],
    "meshes" : [
        {
            "name" : "Sphere",
            "primitives" : [
                {
                    "attributes" : {
                        "POSITION" : 0
                    },
                    "indices" : 1,
                    "material" : 0
                }
            ]
        }
    ],
    "accessors" : [
        {
            "bufferView" : 0,
            "componentType" : 5126,
            "count" : 534,
            "max" : [
                0.9999997019767761,
                1,
                0.9999994039535522
            ],
            "min" : [
                -0.9999990463256836,
                -1,
                -0.9999987483024597
            ],
            "type" : "VEC3"
        },
        {
            "bufferView" : 1,
            "componentType" : 5123,
            "count" : 3192,
            "type" : "SCALAR"
        }
    ],
    "bufferViews" : [
        {
            "buffer" : 0,
            "byteLength" : 6408,
            "byteOffset" : 0
        },
        {
            "buffer" : 0,
            "byteLength" : 6384,
            "byteOffset" : 6408
        }
    ],
    "buffers" : [
        {
            "byteLength" : 12792,
            "uri" : "data:application/octet-stream;base64,"
        }
    ]
}
