{
    "asset" : {
        "generator" : "Khronos glTF Blender I/O v1.6.16",
        "version" : "2.0"
    },
    "scene" : 0,
    "scenes" : [
        {
            "name" : "Scene",
            "nodes" : [
                0
            ]
        }
    ],
    "nodes" : [
        {
            "mesh" : 0,
            "name" : "Cube",
            "rotation" : [
                0,
                -0.707095205783844,
                -2.1916353034612257e-06,
                -0.7071184515953064
            ],
            "translation" : [
                0.6591899991035461,
                0.01968058943748474,
                -0.007744193077087402
            ]
        }
    ],
    "materials" : [
        {
            "doubleSided" : true,
            "name" : "bodyColor",
            "pbrMetallicRoughness" : {
                "baseColorFactor" : [
                    0.1065337285399437,
                    0.1065337285399437,
                    0.1065337285399437,
                    1
                ],
                "metallicFactor" : 0,
                "roughnessFactor" : 0.5
            }
        },
        {
            "doubleSided" : true,
            "name" : "frontLight",
            "pbrMetallicRoughness" : {
                "baseColorFactor" : [
                    0.7742675542831421,
                    0.5085391998291016,
                    0.16654299199581146,
                    1
                ],
                "metallicFactor" : 0,
                "roughnessFactor" : 0.5
            }
        },
        {
            "doubleSided" : true,
            "name" : "backLight",
            "pbrMetallicRoughness" : {
                "baseColorFactor" : [
                    0.10247224569320679,
                    0.0012503891484811902,
                    0,
                    1
                ],
                "metallicFactor" : 0,
                "roughnessFactor" : 0.5
            }
        },
        {
            "doubleSided" : true,
            "name" : "glass",
            "pbrMetallicRoughness" : {
                "baseColorFactor" : [
                    0,
                    0,
                    0,
                    1
                ],
                "metallicFactor" : 0,
                "roughnessFactor" : 0.5
            }
        }
    ],
    "meshes" : [
        {
            "name" : "Cube",
            "primitives" : [
                {
                    "attributes" : {
                        "POSITION" : 0
                    },
                    "indices" : 1,
                    "material" : 0
                },
                {
                    "attributes" : {
                        "POSITION" : 2
                    },
                    "indices" : 3,
                    "material" : 1
                },
                {
                    "attributes" : {
                        "POSITION" : 4
                    },
                    "indices" : 5,
                    "material" : 2
                },
                {
                    "attributes" : {
                        "POSITION" : 6
                    },
                    "indices" : 7,
                    "material" : 3
                }
            ]
        }
    ],
    "accessors" : [
        {
            "bufferView" : 0,
            "componentType" : 5126,
            "count" : 442,
            "max" : [
                0.7250685095787048,
                0.6029764413833618,
                1.078019618988037
            ],
            "min" : [
                -0.7250685095787048,
                -0.16268375515937805,
                -2.059816837310791
            ],
            "type" : "VEC3"
        },
        {
            "bufferView" : 1,
            "componentType" : 5123,
            "count" : 2406,
            "type" : "SCALAR"
        },
        {
            "bufferView" : 2,
            "componentType" : 5126,
            "count" : 10,
            "max" : [
                0.611775815486908,
                0.24054892361164093,
                1.0155025720596313
            ],
            "min" : [
                -0.611775815486908,
                0.1471208930015564,
                1.0061774253845215
            ],
            "type" : "VEC3"
        },
        {
            "bufferView" : 3,
            "componentType" : 5123,
            "count" : 24,
            "type" : "SCALAR"
        },
        {
            "bufferView" : 4,
            "componentType" : 5126,
            "count" : 10,
            "max" : [
                0.6212975978851318,
                0.41952958703041077,
                -1.9926226139068604
            ],
            "min" : [
                -0.6212975978851318,
                0.20639681816101074,
                -2.006462574005127
            ],
            "type" : "VEC3"
        },
        {
            "bufferView" : 5,
            "componentType" : 5123,
            "count" : 24,
            "type" : "SCALAR"
        },
        {
            "bufferView" : 6,
            "componentType" : 5126,
            "count" : 56,
            "max" : [
                0.6173979043960571,
                0.5868360996246338,
                -0.0060096243396401405
            ],
            "min" : [
                -0.6173979043960571,
                0.3019592761993408,
                -1.8346120119094849
            ],
            "type" : "VEC3"
        },
        {
            "bufferView" : 7,
            "componentType" : 5123,
            "count" : 186,
            "type" : "SCALAR"
        }
    ],
    "bufferViews" : [
        {
            "buffer" : 0,
            "byteLength" : 5304,
            "byteOffset" : 0
        },
        {
            "buffer" : 0,
            "byteLength" : 4812,
            "byteOffset" : 5304
        },
        {
            "buffer" : 0,
            "byteLength" : 120,
            "byteOffset" : 10116
        },
        {
            "buffer" : 0,
            "byteLength" : 48,
            "byteOffset" : 10236
        },
        {
            "buffer" : 0,
            "byteLength" : 120,
            "byteOffset" : 10284
        },
        {
            "buffer" : 0,
            "byteLength" : 48,
            "byteOffset" : 10404
        },
        {
            "buffer" : 0,
            "byteLength" : 672,
            "byteOffset" : 10452
        },
        {
            "buffer" : 0,
            "byteLength" : 372,
            "byteOffset" : 11124
        }
    ],
    "buffers" : [
        {
            "byteLength" : 11496,
            "uri" : "data:application/octet-stream;base64,"
        }
    ]
}
