{
    "asset" : {
        "generator" : "Khronos glTF Blender I/O v1.6.16",
        "version" : "2.0"
    },
    "scene" : 0,
    "scenes" : [
        {
            "name" : "Scene",
            "nodes" : [
                0,
                1
            ]
        }
    ],
    "nodes" : [
        {
            "mesh" : 0,
            "name" : "Cube",
            "rotation" : [
                0,
                -0.707095205783844,
                -2.1916353034612257e-06,
                -0.7071184515953064
            ],
            "translation" : [
                0.6591899991035461,
                0.01968058943748474,
                -0.007744193077087402
            ]
        },
        {
            "mesh" : 1,
            "name" : "logo",
            "rotation" : [
                0.5,
                0.5,
                -0.5,
                0.4999999701976776
            ],
            "scale" : [
                0.03834574669599533,
                0.03834574669599533,
                0.03834574669599533
            ],
            "translation" : [
                1.6846164464950562,
                0.2023262083530426,
                0.057234279811382294
            ]
        }
    ],
    "materials" : [
        {
            "doubleSided" : true,
            "name" : "bodyColor.001",
            "pbrMetallicRoughness" : {
                "baseColorFactor" : [
                    0.438540518283844,
                    0.438540518283844,
                    0.438540518283844,
                    1
                ],
                "metallicFactor" : 0,
                "roughnessFactor" : 0.5
            }
        },
        {
            "doubleSided" : true,
            "name" : "glass.001",
            "pbrMetallicRoughness" : {
                "baseColorFactor" : [
                    0,
                    0,
                    0,
                    1
                ],
                "metallicFactor" : 0,
                "roughnessFactor" : 0.5
            }
        },
        {
            "doubleSided" : true,
            "name" : "backLightFrame.001",
            "pbrMetallicRoughness" : {
                "baseColorFactor" : [
                    0.00637122942134738,
                    0.00637122942134738,
                    0.00637122942134738,
                    1
                ],
                "roughnessFactor" : 0.5
            }
        },
        {
            "doubleSided" : true,
            "name" : "backLightOrange.001",
            "pbrMetallicRoughness" : {
                "baseColorFactor" : [
                    0.2956860661506653,
                    0.04394969716668129,
                    0,
                    1
                ],
                "metallicFactor" : 0
            }
        },
        {
            "doubleSided" : true,
            "name" : "backLightWhite.001",
            "pbrMetallicRoughness" : {
                "baseColorFactor" : [
                    0.7612609267234802,
                    0.7612609267234802,
                    0.7612609267234802,
                    1
                ],
                "metallicFactor" : 0,
                "roughnessFactor" : 0.5
            }
        },
        {
            "doubleSided" : true,
            "name" : "backLightRed.001",
            "pbrMetallicRoughness" : {
                "baseColorFactor" : [
                    0.3843674063682556,
                    0,
                    0,
                    1
                ],
                "metallicFactor" : 0,
                "roughnessFactor" : 0.5
            }
        },
        {
            "doubleSided" : true,
            "name" : "backLightSemiRed.001",
            "pbrMetallicRoughness" : {
                "baseColorFactor" : [
                    0.08000832051038742,
                    0,
                    0,
                    1
                ],
                "metallicFactor" : 0,
                "roughnessFactor" : 0.5
            }
        },
        {
            "doubleSided" : true,
            "name" : "frontLightFrame.001",
            "pbrMetallicRoughness" : {}
        },
        {
            "doubleSided" : true,
            "name" : "frontLight.001",
            "pbrMetallicRoughness" : {
                "baseColorFactor" : [
                    0.8000000715255737,
                    0.7840383648872375,
                    0.5633240938186646,
                    1
                ],
                "metallicFactor" : 0,
                "roughnessFactor" : 0.5
            }
        },
        {
            "doubleSided" : true,
            "name" : "logoColor.001",
            "pbrMetallicRoughness" : {
                "baseColorFactor" : [
                    0.6151690483093262,
                    0.6151690483093262,
                    0.6151690483093262,
                    1
                ],
                "metallicFactor" : 0,
                "roughnessFactor" : 0.5
            }
        }
    ],
    "meshes" : [
        {
            "name" : "Cube.001",
            "primitives" : [
                {
                    "attributes" : {
                        "POSITION" : 0
                    },
                    "indices" : 1,
                    "material" : 0
                },
                {
                    "attributes" : {
                        "POSITION" : 2
                    },
                    "indices" : 3,
                    "material" : 1
                },
                {
                    "attributes" : {
                        "POSITION" : 4
                    },
                    "indices" : 5,
                    "material" : 2
                },
                {
                    "attributes" : {
                        "POSITION" : 6
                    },
                    "indices" : 7,
                    "material" : 3
                },
                {
                    "attributes" : {
                        "POSITION" : 8
                    },
                    "indices" : 9,
                    "material" : 4
                },
                {
                    "attributes" : {
                        "POSITION" : 10
                    },
                    "indices" : 11,
                    "material" : 5
                },
                {
                    "attributes" : {
                        "POSITION" : 12
                    },
                    "indices" : 13,
                    "material" : 6
                },
                {
                    "attributes" : {
                        "POSITION" : 14
                    },
                    "indices" : 15,
                    "material" : 7
                },
                {
                    "attributes" : {
                        "POSITION" : 16
                    },
                    "indices" : 17,
                    "material" : 8
                }
            ]
        },
        {
            "name" : "Text.002",
            "primitives" : [
                {
                    "attributes" : {
                        "POSITION" : 18
                    },
                    "indices" : 19,
                    "material" : 9
                }
            ]
        }
    ],
    "accessors" : [
        {
            "bufferView" : 0,
            "componentType" : 5126,
            "count" : 589,
            "max" : [
                0.7250685095787048,
                0.6029764413833618,
                1.078019618988037
            ],
            "min" : [
                -0.7250685095787048,
                -0.16268375515937805,
                -2.059816837310791
            ],
            "type" : "VEC3"
        },
        {
            "bufferView" : 1,
            "componentType" : 5123,
            "count" : 2820,
            "type" : "SCALAR"
        },
        {
            "bufferView" : 2,
            "componentType" : 5126,
            "count" : 56,
            "max" : [
                0.6173979043960571,
                0.5868360996246338,
                -0.0060096243396401405
            ],
            "min" : [
                -0.6173979043960571,
                0.3019592761993408,
                -1.8346120119094849
            ],
            "type" : "VEC3"
        },
        {
            "bufferView" : 3,
            "componentType" : 5123,
            "count" : 186,
            "type" : "SCALAR"
        },
        {
            "bufferView" : 4,
            "componentType" : 5126,
            "count" : 326,
            "max" : [
                0.6212975978851318,
                0.38920193910598755,
                1.0234869718551636
            ],
            "min" : [
                -0.6212975978851318,
                0.15357686579227448,
                -2.0180718898773193
            ],
            "type" : "VEC3"
        },
        {
            "bufferView" : 5,
            "componentType" : 5123,
            "count" : 1506,
            "type" : "SCALAR"
        },
        {
            "bufferView" : 6,
            "componentType" : 5126,
            "count" : 48,
            "max" : [
                0.5820671916007996,
                0.37454235553741455,
                -2.005748748779297
            ],
            "min" : [
                -0.5820671916007996,
                0.22286057472229004,
                -2.0178446769714355
            ],
            "type" : "VEC3"
        },
        {
            "bufferView" : 7,
            "componentType" : 5123,
            "count" : 72,
            "type" : "SCALAR"
        },
        {
            "bufferView" : 8,
            "componentType" : 5126,
            "count" : 24,
            "max" : [
                0.23736821115016937,
                0.375172883272171,
                -2.0056278705596924
            ],
            "min" : [
                -0.23736821115016937,
                0.22200782597064972,
                -2.0179097652435303
            ],
            "type" : "VEC3"
        },
        {
            "bufferView" : 9,
            "componentType" : 5123,
            "count" : 36,
            "type" : "SCALAR"
        },
        {
            "bufferView" : 10,
            "componentType" : 5126,
            "count" : 48,
            "max" : [
                0.4166468679904938,
                0.3744796812534332,
                -2.0057027339935303
            ],
            "min" : [
                -0.4166468679904938,
                0.22275061905384064,
                -2.0178534984588623
            ],
            "type" : "VEC3"
        },
        {
            "bufferView" : 11,
            "componentType" : 5123,
            "count" : 72,
            "type" : "SCALAR"
        },
        {
            "bufferView" : 12,
            "componentType" : 5126,
            "count" : 24,
            "max" : [
                0.3690677881240845,
                0.37381282448768616,
                -2.0057766437530518
            ],
            "min" : [
                -0.3690677881240845,
                0.22291900217533112,
                -2.0178439617156982
            ],
            "type" : "VEC3"
        },
        {
            "bufferView" : 13,
            "componentType" : 5123,
            "count" : 36,
            "type" : "SCALAR"
        },
        {
            "bufferView" : 14,
            "componentType" : 5126,
            "count" : 72,
            "max" : [
                0.5097440481185913,
                0.22895877063274384,
                1.023356318473816
            ],
            "min" : [
                -0.5097440481185913,
                0.15383575856685638,
                1.0055737495422363
            ],
            "type" : "VEC3"
        },
        {
            "bufferView" : 15,
            "componentType" : 5123,
            "count" : 252,
            "type" : "SCALAR"
        },
        {
            "bufferView" : 16,
            "componentType" : 5126,
            "count" : 16,
            "max" : [
                0.506798267364502,
                0.22589391469955444,
                1.0164979696273804
            ],
            "min" : [
                -0.506798267364502,
                0.15678133070468903,
                1.0159584283828735
            ],
            "type" : "VEC3"
        },
        {
            "bufferView" : 17,
            "componentType" : 5123,
            "count" : 24,
            "type" : "SCALAR"
        },
        {
            "bufferView" : 18,
            "componentType" : 5126,
            "count" : 544,
            "max" : [
                3.381498098373413,
                0.05000000074505806,
                0
            ],
            "min" : [
                0.05550660938024521,
                -0.05000000074505806,
                -0.5947136878967285
            ],
            "type" : "VEC3"
        },
        {
            "bufferView" : 19,
            "componentType" : 5123,
            "count" : 1596,
            "type" : "SCALAR"
        }
    ],
    "bufferViews" : [
        {
            "buffer" : 0,
            "byteLength" : 7068,
            "byteOffset" : 0
        },
        {
            "buffer" : 0,
            "byteLength" : 5640,
            "byteOffset" : 7068
        },
        {
            "buffer" : 0,
            "byteLength" : 672,
            "byteOffset" : 12708
        },
        {
            "buffer" : 0,
            "byteLength" : 372,
            "byteOffset" : 13380
        },
        {
            "buffer" : 0,
            "byteLength" : 3912,
            "byteOffset" : 13752
        },
        {
            "buffer" : 0,
            "byteLength" : 3012,
            "byteOffset" : 17664
        },
        {
            "buffer" : 0,
            "byteLength" : 576,
            "byteOffset" : 20676
        },
        {
            "buffer" : 0,
            "byteLength" : 144,
            "byteOffset" : 21252
        },
        {
            "buffer" : 0,
            "byteLength" : 288,
            "byteOffset" : 21396
        },
        {
            "buffer" : 0,
            "byteLength" : 72,
            "byteOffset" : 21684
        },
        {
            "buffer" : 0,
            "byteLength" : 576,
            "byteOffset" : 21756
        },
        {
            "buffer" : 0,
            "byteLength" : 144,
            "byteOffset" : 22332
        },
        {
            "buffer" : 0,
            "byteLength" : 288,
            "byteOffset" : 22476
        },
        {
            "buffer" : 0,
            "byteLength" : 72,
            "byteOffset" : 22764
        },
        {
            "buffer" : 0,
            "byteLength" : 864,
            "byteOffset" : 22836
        },
        {
            "buffer" : 0,
            "byteLength" : 504,
            "byteOffset" : 23700
        },
        {
            "buffer" : 0,
            "byteLength" : 192,
            "byteOffset" : 24204
        },
        {
            "buffer" : 0,
            "byteLength" : 48,
            "byteOffset" : 24396
        },
        {
            "buffer" : 0,
            "byteLength" : 6528,
            "byteOffset" : 24444
        },
        {
            "buffer" : 0,
            "byteLength" : 3192,
            "byteOffset" : 30972
        }
    ],
    "buffers" : [
        {
            "byteLength" : 34164,
            "uri" : "data:application/octet-stream;base64,"
        }
    ]
}
