{
    "asset" : {
        "generator" : "Khronos glTF Blender I/O v1.6.16",
        "version" : "2.0"
    },
    "scene" : 0,
    "scenes" : [
        {
            "name" : "Scene",
            "nodes" : [
                0
            ]
        }
    ],
    "nodes" : [
        {
            "mesh" : 0,
            "name" : "Cylinder",
            "rotation" : [
                0.7071067690849304,
                0,
                0,
                0.7071068286895752
            ]
        }
    ],
    "materials" : [
        {
            "doubleSided" : true,
            "name" : "rubber",
            "pbrMetallicRoughness" : {
                "baseColorFactor" : [
                    0,
                    0,
                    0,
                    1
                ],
                "roughnessFactor" : 0.5
            }
        },
        {
            "doubleSided" : true,
            "name" : "disk",
            "pbrMetallicRoughness" : {
                "baseColorFactor" : [
                    0.4868944585323334,
                    0.4868944585323334,
                    0.4868944585323334,
                    1
                ],
                "metallicFactor" : 0
            }
        }
    ],
    "meshes" : [
        {
            "name" : "Cylinder.002",
            "primitives" : [
                {
                    "attributes" : {
                        "POSITION" : 0
                    },
                    "indices" : 1,
                    "material" : 0
                },
                {
                    "attributes" : {
                        "POSITION" : 2
                    },
                    "indices" : 3,
                    "material" : 1
                }
            ]
        }
    ],
    "accessors" : [
        {
            "bufferView" : 0,
            "componentType" : 5126,
            "count" : 546,
            "max" : [
                0.9972038269042969,
                0.36117178201675415,
                1
            ],
            "min" : [
                -0.9972037672996521,
                -0.36117178201675415,
                -1
            ],
            "type" : "VEC3"
        },
        {
            "bufferView" : 1,
            "componentType" : 5123,
            "count" : 2268,
            "type" : "SCALAR"
        },
        {
            "bufferView" : 2,
            "componentType" : 5126,
            "count" : 504,
            "max" : [
                0.7097786664962769,
                0.2703869342803955,
                0.7117688059806824
            ],
            "min" : [
                -0.7097786068916321,
                -0.2703869342803955,
                -0.7117688655853271
            ],
            "type" : "VEC3"
        },
        {
            "bufferView" : 3,
            "componentType" : 5123,
            "count" : 2508,
            "type" : "SCALAR"
        }
    ],
    "bufferViews" : [
        {
            "buffer" : 0,
            "byteLength" : 6552,
            "byteOffset" : 0
        },
        {
            "buffer" : 0,
            "byteLength" : 4536,
            "byteOffset" : 6552
        },
        {
            "buffer" : 0,
            "byteLength" : 6048,
            "byteOffset" : 11088
        },
        {
            "buffer" : 0,
            "byteLength" : 5016,
            "byteOffset" : 17136
        }
    ],
    "buffers" : [
        {
            "byteLength" : 22152,
            "uri" : "data:application/octet-stream;base64,"
        }
    ]
}
