{
    "asset" : {
        "generator" : "Khronos glTF Blender I/O v1.6.16",
        "version" : "2.0"
    },
    "extensionsUsed" : [
        "KHR_lights_punctual"
    ],
    "extensionsRequired" : [
        "KHR_lights_punctual"
    ],
    "extensions" : {
        "KHR_lights_punctual" : {
            "lights" : [
                {
                    "color" : [
                        1,
                        0.961720883846283,
                        0.7792515158653259
                    ],
                    "intensity" : 0.5,
                    "spot" : {
                        "innerConeAngle" : 0.7312057251384303,
                        "outerConeAngle" : 1.0445796251296997
                    },
                    "type" : "spot",
                    "name" : "Spot.001"
                }
            ]
        }
    },
    "scene" : 0,
    "scenes" : [
        {
            "name" : "Scene",
            "nodes" : [
                0,
                1
            ]
        }
    ],
    "nodes" : [
        {
            "mesh" : 0,
            "name" : "Cylinder"
        },
        {
            "extensions" : {
                "KHR_lights_punctual" : {
                    "light" : 0
                }
            },
            "name" : "Spot",
            "translation" : [
                0,
                0,
                9.15049934387207
            ]
        }
    ],
    "materials" : [
        {
            "doubleSided" : true,
            "name" : "mainMaterial",
            "pbrMetallicRoughness" : {
                "baseColorFactor" : [
                    0.003642031690105796,
                    0.003642031690105796,
                    0.003642031690105796,
                    1
                ],
                "metallicFactor" : 0.8999999761581421,
                "roughnessFactor" : 0.48522165417671204
            }
        },
        {
            "doubleSided" : true,
            "emissiveFactor" : [
                1,
                1,
                0.9449420124292374
            ],
            "name" : "glass",
            "pbrMetallicRoughness" : {}
        }
    ],
    "meshes" : [
        {
            "name" : "Cylinder",
            "primitives" : [
                {
                    "attributes" : {
                        "POSITION" : 0
                    },
                    "indices" : 1,
                    "material" : 0
                },
                {
                    "attributes" : {
                        "POSITION" : 2
                    },
                    "indices" : 3,
                    "material" : 1
                }
            ]
        }
    ],
    "accessors" : [
        {
            "bufferView" : 0,
            "componentType" : 5126,
            "count" : 94,
            "max" : [
                0.8530861735343933,
                0.8694220781326294,
                9.368767738342285
            ],
            "min" : [
                -0.851421058177948,
                -0.8694220781326294,
                -0.12882420420646667
            ],
            "type" : "VEC3"
        },
        {
            "bufferView" : 1,
            "componentType" : 5123,
            "count" : 516,
            "type" : "SCALAR"
        },
        {
            "bufferView" : 2,
            "componentType" : 5126,
            "count" : 16,
            "max" : [
                0.7351713180541992,
                0.7550645470619202,
                9.125983238220215
            ],
            "min" : [
                -0.761379063129425,
                -0.7595270872116089,
                7.707040786743164
            ],
            "type" : "VEC3"
        },
        {
            "bufferView" : 3,
            "componentType" : 5123,
            "count" : 24,
            "type" : "SCALAR"
        }
    ],
    "bufferViews" : [
        {
            "buffer" : 0,
            "byteLength" : 1128,
            "byteOffset" : 0
        },
        {
            "buffer" : 0,
            "byteLength" : 1032,
            "byteOffset" : 1128
        },
        {
            "buffer" : 0,
            "byteLength" : 192,
            "byteOffset" : 2160
        },
        {
            "buffer" : 0,
            "byteLength" : 48,
            "byteOffset" : 2352
        }
    ],
    "buffers" : [
        {
            "byteLength" : 2400,
            "uri" : "data:application/octet-stream;base64,"
        }
    ]
}
