{
    "asset" : {
        "generator" : "Khronos glTF Blender I/O v1.6.16",
        "version" : "2.0"
    },
    "scene" : 0,
    "scenes" : [
        {
            "name" : "Scene",
            "nodes" : [
                0
            ]
        }
    ],
    "nodes" : [
        {
            "mesh" : 0,
            "name" : "Cylinder",
            "translation" : [
                0,
                0.06719841063022614,
                -5.093775689601898e-05
            ]
        }
    ],
    "materials" : [
        {
            "doubleSided" : true,
            "name" : "pinNeck",
            "pbrMetallicRoughness" : {
                "baseColorFactor" : [
                    0.22322803735733032,
                    0.2501583397388458,
                    0.539479672908783,
                    1
                ],
                "metallicFactor" : 0,
                "roughnessFactor" : 0.5
            }
        },
        {
            "doubleSided" : true,
            "name" : "pin",
            "pbrMetallicRoughness" : {
                "baseColorFactor" : [
                    0.8307698965072632,
                    0.7529423832893372,
                    0.7758224010467529,
                    1
                ],
                "metallicFactor" : 0,
                "roughnessFactor" : 0.5
            }
        }
    ],
    "meshes" : [
        {
            "name" : "Cylinder",
            "primitives" : [
                {
                    "attributes" : {
                        "POSITION" : 0
                    },
                    "indices" : 1,
                    "material" : 0
                },
                {
                    "attributes" : {
                        "POSITION" : 2
                    },
                    "indices" : 3,
                    "material" : 1
                }
            ]
        }
    ],
    "accessors" : [
        {
            "bufferView" : 0,
            "componentType" : 5126,
            "count" : 64,
            "max" : [
                0.5404740571975708,
                1.4605108499526978,
                0.5404740571975708
            ],
            "min" : [
                -0.5404740571975708,
                1.0478589534759521,
                -0.540473997592926
            ],
            "type" : "VEC3"
        },
        {
            "bufferView" : 1,
            "componentType" : 5123,
            "count" : 192,
            "type" : "SCALAR"
        },
        {
            "bufferView" : 2,
            "componentType" : 5126,
            "count" : 608,
            "max" : [
                1.2802691459655762,
                3.429241895675659,
                1.2802691459655762
            ],
            "min" : [
                -1.2802691459655762,
                -3.577450752258301,
                -1.2802691459655762
            ],
            "type" : "VEC3"
        },
        {
            "bufferView" : 3,
            "componentType" : 5123,
            "count" : 3444,
            "type" : "SCALAR"
        }
    ],
    "bufferViews" : [
        {
            "buffer" : 0,
            "byteLength" : 768,
            "byteOffset" : 0
        },
        {
            "buffer" : 0,
            "byteLength" : 384,
            "byteOffset" : 768
        },
        {
            "buffer" : 0,
            "byteLength" : 7296,
            "byteOffset" : 1152
        },
        {
            "buffer" : 0,
            "byteLength" : 6888,
            "byteOffset" : 8448
        }
    ],
    "buffers" : [
        {
            "byteLength" : 15336,
            "uri" : "data:application/octet-stream;base64,"
        }
    ]
}
