{
    "asset" : {
        "generator" : "Khronos glTF Blender I/O v1.6.16",
        "version" : "2.0"
    },
    "scene" : 0,
    "scenes" : [
        {
            "name" : "Scene",
            "nodes" : [
                0,
                1
            ]
        }
    ],
    "nodes" : [
        {
            "mesh" : 0,
            "name" : "Cube"
        },
        {
            "name" : "Light",
            "rotation" : [
                0.16907575726509094,
                0.7558803558349609,
                -0.27217137813568115,
                0.570947527885437
            ],
            "translation" : [
                4.076245307922363,
                5.903861999511719,
                -1.0054539442062378
            ]
        }
    ],
    "materials" : [
        {
            "doubleSided" : true,
            "name" : "body",
            "pbrMetallicRoughness" : {
                "baseColorFactor" : [
                    0.36130690574645996,
                    0.028425991535186768,
                    0.004024725407361984,
                    1
                ],
                "metallicFactor" : 0,
                "roughnessFactor" : 0.4000000059604645
            }
        },
        {
            "doubleSided" : true,
            "name" : "frame",
            "pbrMetallicRoughness" : {
                "baseColorFactor" : [
                    0,
                    0,
                    0,
                    1
                ],
                "metallicFactor" : 0,
                "roughnessFactor" : 0.5
            }
        },
        {
            "doubleSided" : true,
            "name" : "handle",
            "pbrMetallicRoughness" : {
                "baseColorFactor" : [
                    0.12370922416448593,
                    0.12370922416448593,
                    0.12370922416448593,
                    1
                ],
                "metallicFactor" : 0,
                "roughnessFactor" : 0.5
            }
        },
        {
            "doubleSided" : true,
            "name" : "casset",
            "pbrMetallicRoughness" : {
                "baseColorFactor" : [
                    0.800000011920929,
                    0.800000011920929,
                    0.800000011920929,
                    1
                ],
                "metallicFactor" : 0,
                "roughnessFactor" : 0.5
            }
        }
    ],
    "meshes" : [
        {
            "name" : "Cube",
            "primitives" : [
                {
                    "attributes" : {
                        "POSITION" : 0
                    },
                    "indices" : 1,
                    "material" : 0
                },
                {
                    "attributes" : {
                        "POSITION" : 2
                    },
                    "indices" : 3,
                    "material" : 1
                },
                {
                    "attributes" : {
                        "POSITION" : 4
                    },
                    "indices" : 5,
                    "material" : 2
                },
                {
                    "attributes" : {
                        "POSITION" : 6
                    },
                    "indices" : 7,
                    "material" : 3
                }
            ]
        }
    ],
    "accessors" : [
        {
            "bufferView" : 0,
            "componentType" : 5126,
            "count" : 70,
            "max" : [
                0.5967053771018982,
                1,
                1.990775227546692
            ],
            "min" : [
                -0.6062759160995483,
                -1,
                -1.990775227546692
            ],
            "type" : "VEC3"
        },
        {
            "bufferView" : 1,
            "componentType" : 5123,
            "count" : 240,
            "type" : "SCALAR"
        },
        {
            "bufferView" : 2,
            "componentType" : 5126,
            "count" : 216,
            "max" : [
                -0.5232853889465332,
                0.9095808863639832,
                1.8844871520996094
            ],
            "min" : [
                -0.681549608707428,
                -0.8445169925689697,
                -1.8844871520996094
            ],
            "type" : "VEC3"
        },
        {
            "bufferView" : 3,
            "componentType" : 5123,
            "count" : 900,
            "type" : "SCALAR"
        },
        {
            "bufferView" : 4,
            "componentType" : 5126,
            "count" : 72,
            "max" : [
                0.05490659922361374,
                1.5617021322250366,
                1.8371844291687012
            ],
            "min" : [
                -0.6233118176460266,
                -0.7640568017959595,
                -1.8371844291687012
            ],
            "type" : "VEC3"
        },
        {
            "bufferView" : 5,
            "componentType" : 5123,
            "count" : 258,
            "type" : "SCALAR"
        },
        {
            "bufferView" : 6,
            "componentType" : 5126,
            "count" : 17,
            "max" : [
                -0.5232853889465332,
                0.7335831522941589,
                0.28564849495887756
            ],
            "min" : [
                -0.5833115577697754,
                0.4716576039791107,
                -0.28564849495887756
            ],
            "type" : "VEC3"
        },
        {
            "bufferView" : 7,
            "componentType" : 5123,
            "count" : 60,
            "type" : "SCALAR"
        }
    ],
    "bufferViews" : [
        {
            "buffer" : 0,
            "byteLength" : 840,
            "byteOffset" : 0
        },
        {
            "buffer" : 0,
            "byteLength" : 480,
            "byteOffset" : 840
        },
        {
            "buffer" : 0,
            "byteLength" : 2592,
            "byteOffset" : 1320
        },
        {
            "buffer" : 0,
            "byteLength" : 1800,
            "byteOffset" : 3912
        },
        {
            "buffer" : 0,
            "byteLength" : 864,
            "byteOffset" : 5712
        },
        {
            "buffer" : 0,
            "byteLength" : 516,
            "byteOffset" : 6576
        },
        {
            "buffer" : 0,
            "byteLength" : 204,
            "byteOffset" : 7092
        },
        {
            "buffer" : 0,
            "byteLength" : 120,
            "byteOffset" : 7296
        }
    ],
    "buffers" : [
        {
            "byteLength" : 7416,
            "uri" : "data:application/octet-stream;base64,"
        }
    ]
}
