{
    "asset" : {
        "generator" : "Khronos glTF Blender I/O v1.6.16",
        "version" : "2.0"
    },
    "scene" : 0,
    "scenes" : [
        {
            "name" : "Scene",
            "nodes" : [
                0,
                1
            ]
        }
    ],
    "nodes" : [
        {
            "mesh" : 0,
            "name" : "Cylinder.001",
            "rotation" : [
                0.7071068286895752,
                0,
                0,
                0.7071068286895752
            ],
            "scale" : [
                0.11762697249650955,
                1.0156726837158203,
                0.11762697249650955
            ],
            "translation" : [
                0.014962196350097656,
                -0.024582212790846825,
                1.2159924507141113
            ]
        },
        {
            "mesh" : 1,
            "name" : "Cube",
            "scale" : [
                -0.18057997524738312,
                0.6900292038917542,
                1.2564682960510254
            ],
            "translation" : [
                0.00901031494140625,
                -0.03158409148454666,
                -0.9978461265563965
            ]
        }
    ],
    "materials" : [
        {
            "doubleSided" : true,
            "name" : "arrow",
            "pbrMetallicRoughness" : {
                "baseColorFactor" : [
                    0.2395513653755188,
                    0.048572711646556854,
                    0,
                    1
                ],
                "metallicFactor" : 0,
                "roughnessFactor" : 0.5
            }
        }
    ],
    "meshes" : [
        {
            "name" : "Cylinder.001",
            "primitives" : [
                {
                    "attributes" : {
                        "POSITION" : 0
                    },
                    "indices" : 1,
                    "material" : 0
                }
            ]
        },
        {
            "name" : "Cube.012",
            "primitives" : [
                {
                    "attributes" : {
                        "POSITION" : 2
                    },
                    "indices" : 3,
                    "material" : 0
                }
            ]
        }
    ],
    "accessors" : [
        {
            "bufferView" : 0,
            "componentType" : 5126,
            "count" : 20,
            "max" : [
                0.9510565400123596,
                1,
                1
            ],
            "min" : [
                -0.9510564804077148,
                -1,
                -1
            ],
            "type" : "VEC3"
        },
        {
            "bufferView" : 1,
            "componentType" : 5123,
            "count" : 108,
            "type" : "SCALAR"
        },
        {
            "bufferView" : 2,
            "componentType" : 5126,
            "count" : 12,
            "max" : [
                1,
                1,
                1
            ],
            "min" : [
                -1,
                -1,
                -1
            ],
            "type" : "VEC3"
        },
        {
            "bufferView" : 3,
            "componentType" : 5123,
            "count" : 60,
            "type" : "SCALAR"
        }
    ],
    "bufferViews" : [
        {
            "buffer" : 0,
            "byteLength" : 240,
            "byteOffset" : 0
        },
        {
            "buffer" : 0,
            "byteLength" : 216,
            "byteOffset" : 240
        },
        {
            "buffer" : 0,
            "byteLength" : 144,
            "byteOffset" : 456
        },
        {
            "buffer" : 0,
            "byteLength" : 120,
            "byteOffset" : 600
        }
    ],
    "buffers" : [
        {
            "byteLength" : 720,
            "uri" : "data:application/octet-stream;base64,"
        }
    ]
}
