{
    "asset" : {
        "generator" : "Khronos glTF Blender I/O v1.6.16",
        "version" : "2.0"
    },
    "scene" : 0,
    "scenes" : [
        {
            "name" : "Scene",
            "nodes" : [
                0,
                1,
                2
            ]
        }
    ],
    "nodes" : [
        {
            "mesh" : 0,
            "name" : "water",
            "translation" : [
                0,
                0.5,
                0
            ]
        },
        {
            "mesh" : 1,
            "name" : "pool",
            "translation" : [
                0,
                0.4000000059604645,
                0
            ]
        },
        {
            "mesh" : 2,
            "name" : "dolphin",
            "rotation" : [
                0,
                0,
                0.30884042382240295,
                0.9511138796806335
            ],
            "translation" : [
                -4.50177526473999,
                -1.3457906246185303,
                0
            ]
        }
    ],
    "animations" : [
        {
            "channels" : [
                {
                    "sampler" : 0,
                    "target" : {
                        "node" : 2,
                        "path" : "translation"
                    }
                },
                {
                    "sampler" : 1,
                    "target" : {
                        "node" : 2,
                        "path" : "rotation"
                    }
                }
            ],
            "name" : "dolphinAnimation",
            "samplers" : [
                {
                    "input" : 8,
                    "interpolation" : "LINEAR",
                    "output" : 9
                },
                {
                    "input" : 10,
                    "interpolation" : "LINEAR",
                    "output" : 11
                }
            ]
        }
    ],
    "materials" : [
        {
            "doubleSided" : true,
            "name" : "water",
            "pbrMetallicRoughness" : {
                "baseColorFactor" : [
                    0.029556870460510254,
                    0.6653875708580017,
                    0.5775805711746216,
                    1
                ],
                "metallicFactor" : 0,
                "roughnessFactor" : 0.5
            }
        },
        {
            "doubleSided" : true,
            "name" : "waterpool",
            "pbrMetallicRoughness" : {
                "baseColorFactor" : [
                    0.2461937516927719,
                    0.2461937516927719,
                    0.2461937516927719,
                    1
                ],
                "metallicFactor" : 0,
                "roughnessFactor" : 0.5
            }
        },
        {
            "doubleSided" : true,
            "name" : "bodyMaterial",
            "pbrMetallicRoughness" : {
                "baseColorFactor" : [
                    0,
                    0.3005438446998596,
                    0.4677838385105133,
                    1
                ],
                "metallicFactor" : 0,
                "roughnessFactor" : 0.5
            }
        },
        {
            "doubleSided" : true,
            "name" : "bottomMaterial",
            "pbrMetallicRoughness" : {
                "metallicFactor" : 0,
                "roughnessFactor" : 0.5
            }
        }
    ],
    "meshes" : [
        {
            "name" : "Plane",
            "primitives" : [
                {
                    "attributes" : {
                        "POSITION" : 0
                    },
                    "indices" : 1,
                    "material" : 0
                }
            ]
        },
        {
            "name" : "Cylinder",
            "primitives" : [
                {
                    "attributes" : {
                        "POSITION" : 2
                    },
                    "indices" : 3,
                    "material" : 1
                }
            ]
        },
        {
            "name" : "Cube.002",
            "primitives" : [
                {
                    "attributes" : {
                        "POSITION" : 4
                    },
                    "indices" : 5,
                    "material" : 2
                },
                {
                    "attributes" : {
                        "POSITION" : 6
                    },
                    "indices" : 7,
                    "material" : 3
                }
            ]
        }
    ],
    "accessors" : [
        {
            "bufferView" : 0,
            "componentType" : 5126,
            "count" : 813,
            "max" : [
                6,
                0.06953515857458115,
                6
            ],
            "min" : [
                -6,
                -0.06251639127731323,
                -6
            ],
            "type" : "VEC3"
        },
        {
            "bufferView" : 1,
            "componentType" : 5123,
            "count" : 4500,
            "type" : "SCALAR"
        },
        {
            "bufferView" : 2,
            "componentType" : 5126,
            "count" : 224,
            "max" : [
                6.351896286010742,
                0.44463270902633667,
                6.351896286010742
            ],
            "min" : [
                -6.351896286010742,
                -0.44463270902633667,
                -6.351896286010742
            ],
            "type" : "VEC3"
        },
        {
            "bufferView" : 3,
            "componentType" : 5123,
            "count" : 1140,
            "type" : "SCALAR"
        },
        {
            "bufferView" : 4,
            "componentType" : 5126,
            "count" : 175,
            "max" : [
                2.1113204956054688,
                0.7331382036209106,
                0.8718331456184387
            ],
            "min" : [
                -2.624824285507202,
                -2.1171083450317383,
                -0.8718331456184387
            ],
            "type" : "VEC3"
        },
        {
            "bufferView" : 5,
            "componentType" : 5123,
            "count" : 876,
            "type" : "SCALAR"
        },
        {
            "bufferView" : 6,
            "componentType" : 5126,
            "count" : 83,
            "max" : [
                2.056056261062622,
                0.03655426949262619,
                0.4415135383605957
            ],
            "min" : [
                -2.2337467670440674,
                -1.6174639463424683,
                -0.4415135383605957
            ],
            "type" : "VEC3"
        },
        {
            "bufferView" : 7,
            "componentType" : 5123,
            "count" : 372,
            "type" : "SCALAR"
        },
        {
            "bufferView" : 8,
            "componentType" : 5126,
            "count" : 238,
            "max" : [
                10
            ],
            "min" : [
                0.125
            ],
            "type" : "SCALAR"
        },
        {
            "bufferView" : 9,
            "componentType" : 5126,
            "count" : 238,
            "type" : "VEC3"
        },
        {
            "bufferView" : 10,
            "componentType" : 5126,
            "count" : 229,
            "max" : [
                10.041666666666666
            ],
            "min" : [
                0.5416666666666666
            ],
            "type" : "SCALAR"
        },
        {
            "bufferView" : 11,
            "componentType" : 5126,
            "count" : 229,
            "type" : "VEC4"
        }
    ],
    "bufferViews" : [
        {
            "buffer" : 0,
            "byteLength" : 9756,
            "byteOffset" : 0
        },
        {
            "buffer" : 0,
            "byteLength" : 9000,
            "byteOffset" : 9756
        },
        {
            "buffer" : 0,
            "byteLength" : 2688,
            "byteOffset" : 18756
        },
        {
            "buffer" : 0,
            "byteLength" : 2280,
            "byteOffset" : 21444
        },
        {
            "buffer" : 0,
            "byteLength" : 2100,
            "byteOffset" : 23724
        },
        {
            "buffer" : 0,
            "byteLength" : 1752,
            "byteOffset" : 25824
        },
        {
            "buffer" : 0,
            "byteLength" : 996,
            "byteOffset" : 27576
        },
        {
            "buffer" : 0,
            "byteLength" : 744,
            "byteOffset" : 28572
        },
        {
            "buffer" : 0,
            "byteLength" : 952,
            "byteOffset" : 29316
        },
        {
            "buffer" : 0,
            "byteLength" : 2856,
            "byteOffset" : 30268
        },
        {
            "buffer" : 0,
            "byteLength" : 916,
            "byteOffset" : 33124
        },
        {
            "buffer" : 0,
            "byteLength" : 3664,
            "byteOffset" : 34040
        }
    ],
    "buffers" : [
        {
            "byteLength" : 37704,
            "uri" : "data:application/octet-stream;base64,"
        }
    ]
}
