{
    "asset" : {
        "generator" : "Khronos glTF Blender I/O v1.6.16",
        "version" : "2.0"
    },
    "scene" : 0,
    "scenes" : [
        {
            "name" : "Scene",
            "nodes" : [
                0,
                1,
                2,
                3,
                4,
                5,
                6,
                7,
                8,
                9
            ]
        }
    ],
    "nodes" : [
        {
            "mesh" : 0,
            "name" : "Cube",
            "translation" : [
                -1.4460300207138062,
                0.6633350253105164,
                0.301954448223114
            ]
        },
        {
            "mesh" : 1,
            "name" : "Cube.001",
            "translation" : [
                1.5540941953659058,
                0.6633350253105164,
                0.301954448223114
            ]
        },
        {
            "mesh" : 2,
            "name" : "Cube.003",
            "rotation" : [
                0,
                0,
                -0.014214730821549892,
                0.9998989701271057
            ],
            "translation" : [
                0.009905099868774414,
                -0.055448949337005615,
                1.0336207151412964
            ]
        },
        {
            "mesh" : 3,
            "name" : "Cube.004",
            "rotation" : [
                0,
                0,
                -0.0014175833202898502,
                1
            ],
            "translation" : [
                0.009905099868774414,
                0.3104487359523773,
                1.0336207151412964
            ]
        },
        {
            "mesh" : 4,
            "name" : "Cube.005",
            "rotation" : [
                0,
                0,
                -0.008180705830454826,
                0.999966561794281
            ],
            "translation" : [
                0.009905099868774414,
                -0.4154130816459656,
                1.0336207151412964
            ]
        },
        {
            "mesh" : 5,
            "name" : "Cube.006",
            "rotation" : [
                0,
                0,
                0.0035435648169368505,
                0.9999937415122986
            ],
            "translation" : [
                0.009905099868774414,
                -0.7635104060173035,
                1.0336205959320068
            ]
        },
        {
            "mesh" : 6,
            "name" : "Cube.007",
            "rotation" : [
                0.4716959297657013,
                -0.009874261915683746,
                0.006873233709484339,
                0.8816791772842407
            ],
            "translation" : [
                0.009905099868774414,
                -1.0277698040008545,
                0.8196309208869934
            ]
        },
        {
            "mesh" : 7,
            "name" : "Cube.009",
            "rotation" : [
                0.540169894695282,
                -0.006258502136915922,
                0.004017302766442299,
                0.8415231108665466
            ],
            "translation" : [
                0.009905099868774414,
                0.789082407951355,
                1.342820644378662
            ]
        },
        {
            "mesh" : 8,
            "name" : "Cube.010",
            "rotation" : [
                0.5457764863967896,
                -0.001980918226763606,
                0.0012902526650577784,
                0.8379274606704712
            ],
            "translation" : [
                0.009905099868774414,
                0.9354414939880371,
                1.6655359268188477
            ]
        },
        {
            "mesh" : 9,
            "name" : "Cube.011",
            "rotation" : [
                0.5450599789619446,
                0.00465669808909297,
                -0.003027485217899084,
                0.8383786678314209
            ],
            "translation" : [
                0.009905099868774414,
                1.082789421081543,
                1.9964919090270996
            ]
        }
    ],
    "materials" : [
        {
            "doubleSided" : true,
            "name" : "Material",
            "pbrMetallicRoughness" : {
                "baseColorFactor" : [
                    0.22696593403816223,
                    0.22696590423583984,
                    0.22696590423583984,
                    1
                ],
                "metallicFactor" : 0,
                "roughnessFactor" : 0.4000000059604645
            }
        },
        {
            "doubleSided" : true,
            "name" : "metal",
            "pbrMetallicRoughness" : {
                "baseColorFactor" : [
                    0.22696593403816223,
                    0.22696590423583984,
                    0.22696590423583984,
                    1
                ],
                "metallicFactor" : 0,
                "roughnessFactor" : 0.4000000059604645
            }
        },
        {
            "doubleSided" : true,
            "name" : "wood.005",
            "pbrMetallicRoughness" : {
                "baseColorFactor" : [
                    0.6104961037635803,
                    0.21223069727420807,
                    0.031896062195301056,
                    1
                ],
                "metallicFactor" : 0,
                "roughnessFactor" : 0.5
            }
        },
        {
            "doubleSided" : true,
            "name" : "wood.006",
            "pbrMetallicRoughness" : {
                "baseColorFactor" : [
                    0.6104961037635803,
                    0.21223069727420807,
                    0.031896062195301056,
                    1
                ],
                "metallicFactor" : 0,
                "roughnessFactor" : 0.5
            }
        },
        {
            "doubleSided" : true,
            "name" : "wood.004",
            "pbrMetallicRoughness" : {
                "baseColorFactor" : [
                    0.6104961037635803,
                    0.21223069727420807,
                    0.031896062195301056,
                    1
                ],
                "metallicFactor" : 0,
                "roughnessFactor" : 0.5
            }
        },
        {
            "doubleSided" : true,
            "name" : "wood.003",
            "pbrMetallicRoughness" : {
                "baseColorFactor" : [
                    0.6104961037635803,
                    0.21223069727420807,
                    0.031896062195301056,
                    1
                ],
                "metallicFactor" : 0,
                "roughnessFactor" : 0.5
            }
        },
        {
            "doubleSided" : true,
            "name" : "wood.002",
            "pbrMetallicRoughness" : {
                "baseColorFactor" : [
                    0.6104961037635803,
                    0.21223069727420807,
                    0.031896062195301056,
                    1
                ],
                "metallicFactor" : 0,
                "roughnessFactor" : 0.5
            }
        },
        {
            "doubleSided" : true,
            "name" : "wood.007",
            "pbrMetallicRoughness" : {
                "baseColorFactor" : [
                    0.6104961037635803,
                    0.21223069727420807,
                    0.031896062195301056,
                    1
                ],
                "metallicFactor" : 0,
                "roughnessFactor" : 0.5
            }
        },
        {
            "doubleSided" : true,
            "name" : "wood.008",
            "pbrMetallicRoughness" : {
                "baseColorFactor" : [
                    0.6104961037635803,
                    0.21223069727420807,
                    0.031896062195301056,
                    1
                ],
                "metallicFactor" : 0,
                "roughnessFactor" : 0.5
            }
        },
        {
            "doubleSided" : true,
            "name" : "wood",
            "pbrMetallicRoughness" : {
                "baseColorFactor" : [
                    0.6104961037635803,
                    0.21223069727420807,
                    0.031896062195301056,
                    1
                ],
                "metallicFactor" : 0,
                "roughnessFactor" : 0.5
            }
        }
    ],
    "meshes" : [
        {
            "name" : "Cube",
            "primitives" : [
                {
                    "attributes" : {
                        "POSITION" : 0
                    },
                    "indices" : 1,
                    "material" : 0
                }
            ]
        },
        {
            "name" : "Cube.001",
            "primitives" : [
                {
                    "attributes" : {
                        "POSITION" : 2
                    },
                    "indices" : 1,
                    "material" : 1
                }
            ]
        },
        {
            "name" : "Cube.003",
            "primitives" : [
                {
                    "attributes" : {
                        "POSITION" : 3
                    },
                    "indices" : 4,
                    "material" : 2
                }
            ]
        },
        {
            "name" : "Cube.004",
            "primitives" : [
                {
                    "attributes" : {
                        "POSITION" : 5
                    },
                    "indices" : 4,
                    "material" : 3
                }
            ]
        },
        {
            "name" : "Cube.005",
            "primitives" : [
                {
                    "attributes" : {
                        "POSITION" : 6
                    },
                    "indices" : 4,
                    "material" : 4
                }
            ]
        },
        {
            "name" : "Cube.006",
            "primitives" : [
                {
                    "attributes" : {
                        "POSITION" : 7
                    },
                    "indices" : 4,
                    "material" : 5
                }
            ]
        },
        {
            "name" : "Cube.007",
            "primitives" : [
                {
                    "attributes" : {
                        "POSITION" : 8
                    },
                    "indices" : 4,
                    "material" : 6
                }
            ]
        },
        {
            "name" : "Cube.009",
            "primitives" : [
                {
                    "attributes" : {
                        "POSITION" : 9
                    },
                    "indices" : 4,
                    "material" : 7
                }
            ]
        },
        {
            "name" : "Cube.010",
            "primitives" : [
                {
                    "attributes" : {
                        "POSITION" : 10
                    },
                    "indices" : 4,
                    "material" : 8
                }
            ]
        },
        {
            "name" : "Cube.011",
            "primitives" : [
                {
                    "attributes" : {
                        "POSITION" : 11
                    },
                    "indices" : 4,
                    "material" : 9
                }
            ]
        }
    ],
    "accessors" : [
        {
            "bufferView" : 0,
            "componentType" : 5126,
            "count" : 44,
            "max" : [
                0.054886594414711,
                0.5378391742706299,
                1.6996338367462158
            ],
            "min" : [
                -0.10000002384185791,
                -1.8054237365722656,
                -0.3019176125526428
            ],
            "type" : "VEC3"
        },
        {
            "bufferView" : 1,
            "componentType" : 5123,
            "count" : 252,
            "type" : "SCALAR"
        },
        {
            "bufferView" : 2,
            "componentType" : 5126,
            "count" : 44,
            "max" : [
                0.0097731314599514,
                0.5378391742706299,
                1.6996338367462158
            ],
            "min" : [
                -0.1574171781539917,
                -1.8054237365722656,
                -0.3019176125526428
            ],
            "type" : "VEC3"
        },
        {
            "bufferView" : 3,
            "componentType" : 5126,
            "count" : 8,
            "max" : [
                1.7460359334945679,
                0.11635778844356537,
                0.0410122275352478
            ],
            "min" : [
                -1.7460359334945679,
                -0.11635778844356537,
                -0.0410122275352478
            ],
            "type" : "VEC3"
        },
        {
            "bufferView" : 4,
            "componentType" : 5123,
            "count" : 36,
            "type" : "SCALAR"
        },
        {
            "bufferView" : 5,
            "componentType" : 5126,
            "count" : 8,
            "max" : [
                1.7460359334945679,
                0.11680968850851059,
                0.0410122275352478
            ],
            "min" : [
                -1.7460359334945679,
                -0.11680968850851059,
                -0.0410122275352478
            ],
            "type" : "VEC3"
        },
        {
            "bufferView" : 6,
            "componentType" : 5126,
            "count" : 8,
            "max" : [
                1.7460359334945679,
                0.1147296279668808,
                0.0410122275352478
            ],
            "min" : [
                -1.7460359334945679,
                -0.1147296279668808,
                -0.0410122275352478
            ],
            "type" : "VEC3"
        },
        {
            "bufferView" : 7,
            "componentType" : 5126,
            "count" : 8,
            "max" : [
                1.7460359334945679,
                0.11974397301673889,
                0.0410122275352478
            ],
            "min" : [
                -1.7460359334945679,
                -0.11974397301673889,
                -0.0410122275352478
            ],
            "type" : "VEC3"
        },
        {
            "bufferView" : 8,
            "componentType" : 5126,
            "count" : 8,
            "max" : [
                1.7460359334945679,
                0.11697801202535629,
                0.037111345678567886
            ],
            "min" : [
                -1.7460359334945679,
                -0.11697801202535629,
                -0.037111345678567886
            ],
            "type" : "VEC3"
        },
        {
            "bufferView" : 9,
            "componentType" : 5126,
            "count" : 8,
            "max" : [
                1.7460359334945679,
                0.11596739292144775,
                0.03919275477528572
            ],
            "min" : [
                -1.7460359334945679,
                -0.11596739292144775,
                -0.03919275477528572
            ],
            "type" : "VEC3"
        },
        {
            "bufferView" : 10,
            "componentType" : 5126,
            "count" : 8,
            "max" : [
                1.7460359334945679,
                0.1192203164100647,
                0.03945961967110634
            ],
            "min" : [
                -1.7460359334945679,
                -0.1192203164100647,
                -0.03945961967110634
            ],
            "type" : "VEC3"
        },
        {
            "bufferView" : 11,
            "componentType" : 5126,
            "count" : 8,
            "max" : [
                1.7460359334945679,
                0.10868504643440247,
                0.03900256007909775
            ],
            "min" : [
                -1.7460359334945679,
                -0.10868504643440247,
                -0.03900256007909775
            ],
            "type" : "VEC3"
        }
    ],
    "bufferViews" : [
        {
            "buffer" : 0,
            "byteLength" : 528,
            "byteOffset" : 0
        },
        {
            "buffer" : 0,
            "byteLength" : 504,
            "byteOffset" : 528
        },
        {
            "buffer" : 0,
            "byteLength" : 528,
            "byteOffset" : 1032
        },
        {
            "buffer" : 0,
            "byteLength" : 96,
            "byteOffset" : 1560
        },
        {
            "buffer" : 0,
            "byteLength" : 72,
            "byteOffset" : 1656
        },
        {
            "buffer" : 0,
            "byteLength" : 96,
            "byteOffset" : 1728
        },
        {
            "buffer" : 0,
            "byteLength" : 96,
            "byteOffset" : 1824
        },
        {
            "buffer" : 0,
            "byteLength" : 96,
            "byteOffset" : 1920
        },
        {
            "buffer" : 0,
            "byteLength" : 96,
            "byteOffset" : 2016
        },
        {
            "buffer" : 0,
            "byteLength" : 96,
            "byteOffset" : 2112
        },
        {
            "buffer" : 0,
            "byteLength" : 96,
            "byteOffset" : 2208
        },
        {
            "buffer" : 0,
            "byteLength" : 96,
            "byteOffset" : 2304
        }
    ],
    "buffers" : [
        {
            "byteLength" : 2400,
            "uri" : "data:application/octet-stream;base64,"
        }
    ]
}
